<svg width="20" height="20" viewBox="0 0 20 20" fill="none" xmlns="http://www.w3.org/2000/svg">
<g clip-path="url(#clip0_12_10573)">
<path d="M9.99998 4.91659C10.9666 4.91659 11.75 5.69992 11.75 6.66659C11.75 7.63325 10.9666 8.41659 9.99998 8.41659C9.03331 8.41659 8.24998 7.63325 8.24998 6.66659C8.24998 5.69992 9.03331 4.91659 9.99998 4.91659ZM9.99998 12.4166C12.475 12.4166 15.0833 13.6333 15.0833 14.1666V15.0833H4.91665V14.1666C4.91665 13.6333 7.52498 12.4166 9.99998 12.4166ZM9.99998 3.33325C8.15831 3.33325 6.66665 4.82492 6.66665 6.66659C6.66665 8.50825 8.15831 9.99992 9.99998 9.99992C11.8416 9.99992 13.3333 8.50825 13.3333 6.66659C13.3333 4.82492 11.8416 3.33325 9.99998 3.33325ZM9.99998 10.8333C7.77498 10.8333 3.33331 11.9499 3.33331 14.1666V16.6666H16.6666V14.1666C16.6666 11.9499 12.225 10.8333 9.99998 10.8333Z" fill="#667085"/>
</g>
<defs>
<clipPath id="clip0_12_10573">
<rect width="20" height="20" fill="white"/>
</clipPath>
</defs>
</svg>
