<svg width="12" height="12" viewBox="0 0 12 12" fill="none" xmlns="http://www.w3.org/2000/svg">
<path d="M6 11.375C3.035 11.375 0.625 8.965 0.625 6C0.625 3.035 3.035 0.625 6 0.625C8.965 0.625 11.375 3.035 11.375 6C11.375 8.965 8.965 11.375 6 11.375ZM6 1.375C3.45 1.375 1.375 3.45 1.375 6C1.375 8.55 3.45 10.625 6 10.625C8.55 10.625 10.625 8.55 10.625 6C10.625 3.45 8.55 1.375 6 1.375Z" fill="#707070"/>
<path d="M4.5 10.875H4C3.795 10.875 3.625 10.705 3.625 10.5C3.625 10.295 3.785 10.13 3.99 10.125C3.205 7.445 3.205 4.555 3.99 1.875C3.785 1.87 3.625 1.705 3.625 1.5C3.625 1.295 3.795 1.125 4 1.125H4.5C4.62 1.125 4.73499 1.185 4.80499 1.28C4.87499 1.38 4.895 1.505 4.855 1.62C3.915 4.445 3.915 7.555 4.855 10.385C4.895 10.5 4.87499 10.625 4.80499 10.725C4.73499 10.815 4.62 10.875 4.5 10.875Z" fill="#707070"/>
<path d="M7.50002 10.875C7.46002 10.875 7.42002 10.87 7.38002 10.855C7.18502 10.79 7.07502 10.575 7.14502 10.38C8.08502 7.55503 8.08502 4.44503 7.14502 1.61503C7.08002 1.42003 7.18502 1.20503 7.38002 1.14003C7.58002 1.07503 7.79002 1.18003 7.85502 1.37503C8.85002 4.35503 8.85002 7.63503 7.85502 10.61C7.80502 10.775 7.65502 10.875 7.50002 10.875Z" fill="#707070"/>
<path d="M6 8.60002C4.605 8.60002 3.215 8.40502 1.875 8.01002C1.87 8.21002 1.705 8.37502 1.5 8.37502C1.295 8.37502 1.125 8.20502 1.125 8.00002V7.50002C1.125 7.38002 1.185 7.26502 1.28 7.19502C1.38 7.12502 1.505 7.10502 1.62 7.14502C4.445 8.08502 7.56 8.08502 10.385 7.14502C10.5 7.10502 10.625 7.12502 10.725 7.19502C10.825 7.26502 10.88 7.38002 10.88 7.50002V8.00002C10.88 8.20502 10.71 8.37502 10.505 8.37502C10.3 8.37502 10.135 8.21502 10.13 8.01002C8.785 8.40502 7.395 8.60002 6 8.60002Z" fill="#707070"/>
<path d="M10.5 4.87499C10.46 4.87499 10.42 4.86999 10.38 4.85499C7.55501 3.91499 4.44001 3.91499 1.61501 4.85499C1.41501 4.91999 1.20501 4.81499 1.14001 4.61999C1.08001 4.41999 1.18501 4.20999 1.38001 4.14499C4.36001 3.14999 7.64001 3.14999 10.615 4.14499C10.81 4.20999 10.92 4.42499 10.85 4.61999C10.805 4.77499 10.655 4.87499 10.5 4.87499Z" fill="#707070"/>
</svg>
