<svg width="222" height="55" viewBox="0 0 222 55" fill="none" xmlns="http://www.w3.org/2000/svg">
<path d="M32.5285 35.8284C32.9833 35.371 33.3316 34.8187 33.5483 34.2112C33.7651 33.6036 33.8451 32.9556 33.7825 32.3136L33.8053 32.3352C33.7415 31.5792 33.8434 30.8183 34.1041 30.1057C34.3647 29.3932 34.7778 28.7461 35.3144 28.2097C35.8511 27.6734 36.4982 27.2606 37.2109 27.0002C37.9236 26.7399 38.6845 26.6382 39.4405 26.7024L39.4177 26.6808C40.3216 26.7655 41.2296 26.5693 42.0179 26.119C42.8062 25.6687 43.4363 24.9863 43.8226 24.1647C44.2087 23.3431 44.3321 22.4224 44.1758 21.5281C44.0196 20.6338 43.5912 19.8095 42.9493 19.1676C42.3074 18.5257 41.483 18.0974 40.5888 17.9411C39.6946 17.7848 38.7738 17.9082 37.9523 18.2944C37.1306 18.6806 36.4482 19.3108 35.998 20.0991C35.5476 20.8874 35.3514 21.7953 35.4361 22.6992L35.4145 22.6776C35.4784 23.4334 35.3764 24.1941 35.1158 24.9064C34.8553 25.6188 34.4425 26.2657 33.9062 26.8021C33.3698 27.3384 32.7229 27.7513 32.0105 28.0117C31.2982 28.2722 30.5375 28.3742 29.7817 28.3104L29.8033 28.332C29.0648 28.2658 28.3215 28.3871 27.6423 28.6846C26.9632 28.982 26.3701 29.4462 25.918 30.034C25.466 30.6216 25.1696 31.314 25.0563 32.0467C24.9431 32.7796 25.0166 33.5291 25.2701 34.2258C25.5237 34.9226 25.949 35.5441 26.5067 36.0328C27.0643 36.5215 27.7363 36.8615 28.4604 37.0213C29.1844 37.181 29.9371 37.1555 30.6487 36.947C31.3602 36.7385 32.0076 36.3538 32.5309 35.8284H32.5285Z" fill="#707070"/>
<path d="M58.7052 31.8968L58.6824 31.8752C59.3247 31.9399 59.9735 31.8611 60.5817 31.6444C61.1899 31.4276 61.7424 31.0786 62.1991 30.6222C62.6557 30.1658 63.0054 29.6136 63.2225 29.0056C63.4397 28.3975 63.519 27.7489 63.4548 27.1064L63.4776 27.128C63.4137 26.3722 63.5157 25.6116 63.7761 24.8992C64.0367 24.1868 64.4496 23.5399 64.9859 23.0035C65.5223 22.4672 66.1692 22.0543 66.8815 21.7939C67.5939 21.5333 68.3545 21.4314 69.1104 21.4952L69.0876 21.4736C69.9918 21.5586 70.9001 21.3625 71.6887 20.9122C72.4775 20.4618 73.1079 19.7792 73.4943 18.9574C73.8807 18.1355 74.0042 17.2145 73.848 16.3199C73.6917 15.4253 73.2633 14.6006 72.6211 13.9585C71.979 13.3163 71.1543 12.8879 70.2597 12.7316C69.3651 12.5753 68.4441 12.6988 67.6223 13.0853C66.8004 13.4717 66.1178 14.1022 65.6675 14.8909C65.2171 15.6795 65.021 16.5879 65.106 17.492L65.0844 17.4692C65.1483 18.2251 65.0466 18.9858 64.7862 19.6983C64.5258 20.4108 64.1129 21.0578 63.5766 21.5942C63.0402 22.1305 62.3931 22.5434 61.6807 22.8038C60.9681 23.0642 60.2075 23.166 59.4516 23.102L59.4732 23.1248C58.8308 23.0602 58.182 23.139 57.5738 23.3557C56.9657 23.5723 56.4132 23.9215 55.9565 24.3779C55.4997 24.8342 55.1502 25.3865 54.933 25.9945C54.7159 26.6026 54.6366 27.2512 54.7008 27.8936L54.6792 27.872C54.7428 28.6278 54.6407 29.3884 54.3801 30.1007C54.1195 30.8129 53.7067 31.4598 53.1704 31.9961C52.6341 32.5324 51.9872 32.9452 51.275 33.2058C50.5627 33.4663 49.8021 33.5684 49.0464 33.5048L49.068 33.5264C48.1638 33.4415 47.2554 33.6376 46.4668 34.0879C45.6781 34.5383 45.0476 35.2208 44.6612 36.0427C44.2748 36.8646 44.1513 37.7856 44.3075 38.6802C44.4638 39.5748 44.8923 40.3994 45.5344 41.0416C46.1766 41.6838 47.0012 42.1122 47.8958 42.2684C48.7904 42.4247 49.7115 42.3012 50.5333 41.9148C51.3551 41.5284 52.0378 40.8979 52.4881 40.1093C52.9385 39.3205 53.1345 38.4122 53.0496 37.508L53.0724 37.5296C53.0085 36.7738 53.1105 36.0132 53.3711 35.3008C53.6315 34.5884 54.0444 33.9415 54.5807 33.4051C55.1171 32.8688 55.764 32.4559 56.4763 32.1955C57.1887 31.935 57.9493 31.833 58.7052 31.8968Z" fill="#707070"/>
<path d="M85.6245 19.1703C85.1697 19.6279 84.8214 20.1801 84.6045 20.7875C84.3875 21.3951 84.3072 22.043 84.3693 22.6851L84.3477 22.6635C84.4115 23.4194 84.3095 24.1799 84.049 24.8924C83.7885 25.6047 83.3757 26.2516 82.8394 26.788C82.303 27.3243 81.6561 27.7372 80.9436 27.9976C80.2313 28.2581 79.4706 28.3601 78.7149 28.2963L78.7365 28.3179C77.8324 28.2338 76.9243 28.4305 76.1361 28.8813C75.3479 29.3321 74.7179 30.0151 74.3321 30.8371C73.9463 31.6591 73.8233 32.5799 73.98 33.4744C74.1369 34.3688 74.5656 35.1931 75.208 35.8348C75.8503 36.4766 76.675 36.9046 77.5695 37.0605C78.4641 37.2165 79.3848 37.0927 80.2065 36.7061C81.0281 36.3195 81.7104 35.689 82.1605 34.9004C82.6107 34.1117 82.8066 33.2036 82.7217 32.2995L82.7445 32.3211C82.6806 31.5653 82.7825 30.8047 83.043 30.0922C83.3035 29.3799 83.7165 28.733 84.2527 28.1966C84.7891 27.6603 85.4361 27.2474 86.1484 26.987C86.8608 26.7265 87.6214 26.6245 88.3773 26.6883L88.3545 26.6667C89.0929 26.7331 89.8363 26.612 90.5157 26.3146C91.1949 26.0173 91.7881 25.5532 92.2403 24.9656C92.6925 24.3779 92.9891 23.6855 93.1024 22.9528C93.2158 22.22 93.1423 21.4705 92.8889 20.7735C92.6355 20.0767 92.2102 19.4551 91.6525 18.9663C91.0949 18.4775 90.4229 18.1375 89.6988 17.9776C88.9747 17.8178 88.222 17.8432 87.5104 18.0517C86.7988 18.2602 86.1514 18.6449 85.6281 19.1703H85.6245Z" fill="#707070"/>
<path d="M93.1542 18.8281H96.7182V36.1717H93.1542V18.8281Z" fill="#707070"/>
<path d="M96.7184 27.525C96.7135 26.2786 97.0785 25.0587 97.7673 24.02C98.4561 22.9813 99.4377 22.1703 100.588 21.69C101.738 21.2095 103.005 21.0812 104.228 21.3213C105.451 21.5614 106.575 22.159 107.458 23.0386C108.341 23.9181 108.943 25.04 109.188 26.2621C109.433 27.4842 109.31 28.7515 108.834 29.9035C108.358 31.0554 107.551 32.0403 106.516 32.7332C105.479 33.4262 104.261 33.7962 103.015 33.7962C102.187 33.8056 101.367 33.65 100.6 33.3385C99.8334 33.027 99.1367 32.5658 98.5505 31.982C97.9642 31.3981 97.5003 30.7032 97.1858 29.9379C96.8711 29.1727 96.7123 28.3524 96.7184 27.525ZM105.747 27.525C105.732 26.9877 105.559 26.4668 105.25 26.0272C104.941 25.5878 104.509 25.2492 104.008 25.0539C103.507 24.8586 102.96 24.8151 102.435 24.9291C101.91 25.0431 101.43 25.3093 101.055 25.6946C100.68 26.0798 100.427 26.567 100.328 27.0952C100.229 27.6234 100.287 28.1691 100.496 28.6642C100.706 29.1594 101.056 29.5818 101.504 29.8788C101.952 30.1758 102.477 30.3342 103.015 30.3342C103.383 30.344 103.749 30.2774 104.09 30.1387C104.431 30 104.74 29.7921 104.996 29.5282C105.253 29.2642 105.452 28.95 105.582 28.6052C105.711 28.2604 105.767 27.8926 105.747 27.525Z" fill="#707070"/>
<path d="M122.096 19.1822V30.4622C122.096 34.4534 118.984 36.1406 115.824 36.1406C114.712 36.2238 113.598 35.9991 112.604 35.4911C111.611 34.983 110.777 34.2113 110.194 33.2606L113.234 31.5026C113.48 31.9982 113.871 32.407 114.355 32.6745C114.839 32.9418 115.393 33.0551 115.943 32.999C116.294 33.0477 116.653 33.0167 116.991 32.9084C117.328 32.8 117.638 32.617 117.896 32.373C118.153 32.129 118.353 31.8302 118.48 31.4985C118.606 31.1669 118.657 30.8111 118.627 30.4574V29.3714C118.21 29.882 117.679 30.2877 117.076 30.5559C116.474 30.8241 115.817 30.9473 115.158 30.9158C113.591 30.8663 112.104 30.209 111.013 29.0826C109.921 27.9564 109.311 26.4497 109.311 24.8816C109.311 23.3134 109.921 21.8067 111.013 20.6805C112.104 19.5542 113.591 18.8968 115.158 18.8474C115.817 18.8158 116.474 18.939 117.076 19.2072C117.679 19.4754 118.21 19.8812 118.627 20.3918V19.1798L122.096 19.1822ZM118.628 24.8834C118.652 24.309 118.504 23.7406 118.202 23.2514C117.9 22.762 117.459 22.3743 116.935 22.138C116.411 21.9016 115.828 21.8276 115.262 21.9252C114.695 22.0229 114.171 22.2879 113.756 22.6862C113.341 23.0843 113.056 23.5974 112.935 24.1595C112.814 24.7216 112.865 25.307 113.08 25.8401C113.295 26.3733 113.664 26.83 114.141 27.1514C114.618 27.4727 115.18 27.6441 115.754 27.6434C116.129 27.6695 116.505 27.617 116.858 27.489C117.211 27.3611 117.533 27.1606 117.803 26.9007C118.074 26.6406 118.288 26.3268 118.43 25.9793C118.572 25.6319 118.639 25.2586 118.628 24.8834Z" fill="#707070"/>
<path d="M122.097 27.525C122.092 26.2786 122.457 25.0587 123.146 24.02C123.834 22.9813 124.816 22.1703 125.966 21.69C127.116 21.2095 128.383 21.0812 129.606 21.3213C130.829 21.5614 131.953 22.159 132.836 23.0386C133.719 23.9181 134.321 25.04 134.567 26.2621C134.812 27.4842 134.688 28.7515 134.213 29.9035C133.737 31.0554 132.93 32.0403 131.894 32.7332C130.858 33.4262 129.639 33.7962 128.393 33.7962C127.566 33.8056 126.745 33.65 125.978 33.3385C125.212 33.027 124.515 32.5658 123.929 31.982C123.342 31.3981 122.879 30.7032 122.564 29.9379C122.249 29.1727 122.09 28.3524 122.097 27.525ZM131.125 27.525C131.111 26.9877 130.938 26.4668 130.628 26.0272C130.319 25.5878 129.887 25.2492 129.386 25.0539C128.886 24.8586 128.338 24.8151 127.813 24.9291C127.288 25.0431 126.808 25.3093 126.433 25.6946C126.059 26.0798 125.806 26.567 125.706 27.0952C125.607 27.6234 125.666 28.1691 125.875 28.6642C126.084 29.1594 126.434 29.5818 126.882 29.8788C127.33 30.1758 127.856 30.3342 128.393 30.3342C128.761 30.344 129.127 30.2774 129.468 30.1387C129.809 30 130.118 29.7921 130.375 29.5282C130.631 29.2642 130.831 28.95 130.96 28.6052C131.089 28.2604 131.145 27.8926 131.125 27.525Z" fill="#707070"/>
<path d="M134.689 21.0373C134.689 20.6144 134.815 20.201 135.05 19.8493C135.285 19.4976 135.619 19.2236 136.01 19.0617C136.4 18.8999 136.83 18.8575 137.245 18.94C137.66 19.0225 138.041 19.2262 138.34 19.5253C138.639 19.8243 138.843 20.2053 138.925 20.6201C139.008 21.035 138.965 21.4649 138.803 21.8557C138.642 22.2464 138.368 22.5804 138.016 22.8154C137.664 23.0503 137.251 23.1757 136.828 23.1757C136.262 23.1701 135.722 22.943 135.322 22.5432C134.922 22.1434 134.695 21.6027 134.689 21.0373ZM135.049 24.2209H138.615V36.1009H135.045L135.049 24.2209Z" fill="#707070"/>
<path d="M151.747 25.2942C151.789 26.0793 151.674 26.8648 151.411 27.6056C151.147 28.3464 150.74 29.0277 150.212 29.6106C149.685 30.1933 149.047 30.6661 148.336 31.0016C147.625 31.337 146.854 31.5286 146.069 31.5654C145.409 31.6014 144.748 31.49 144.136 31.2393C143.524 30.9885 142.976 30.6048 142.53 30.1158V35.985H138.966V19.3542H142.53V20.4702C142.976 19.9815 143.525 19.598 144.137 19.3476C144.749 19.097 145.409 18.9858 146.069 19.0218C146.855 19.0584 147.625 19.2499 148.336 19.5854C149.048 19.9209 149.685 20.3937 150.213 20.9767C150.741 21.5596 151.148 22.2412 151.411 22.9822C151.675 23.7231 151.789 24.5089 151.747 25.2942ZM148.183 25.2942C148.169 24.7382 147.992 24.1987 147.673 23.743C147.354 23.2875 146.907 22.9362 146.39 22.7331C145.872 22.53 145.306 22.484 144.762 22.6011C144.218 22.7181 143.721 22.9929 143.333 23.3911C142.945 23.7894 142.682 24.2931 142.579 24.8397C142.476 25.3862 142.536 25.9509 142.752 26.4634C142.968 26.976 143.331 27.4132 143.794 27.7208C144.257 28.0282 144.801 28.1923 145.357 28.1922C145.739 28.2092 146.12 28.1452 146.476 28.0046C146.831 27.8641 147.153 27.6499 147.42 27.3763C147.686 27.1026 147.892 26.7757 148.024 26.4169C148.156 26.0581 148.21 25.6754 148.183 25.2942Z" fill="#707070"/>
<path d="M161.804 29.8661C161.804 32.5985 159.43 33.7625 156.864 33.7625C155.827 33.8563 154.787 33.6372 153.876 33.1331C152.965 32.6291 152.227 31.8635 151.756 30.9353L154.843 29.1773C154.968 29.6063 155.237 29.9796 155.603 30.2346C155.97 30.4897 156.414 30.6113 156.859 30.5789C157.714 30.5789 158.142 30.3173 158.142 29.8433C158.142 28.5353 152.297 29.2253 152.297 25.1153C152.297 22.5245 154.483 21.2189 156.954 21.2189C157.883 21.1895 158.802 21.4098 159.617 21.8568C160.432 22.3039 161.112 22.9613 161.586 23.7605L158.545 25.3997C158.412 25.0885 158.19 24.8235 157.907 24.6376C157.624 24.4517 157.292 24.3533 156.954 24.3545C156.336 24.3545 155.956 24.5945 155.956 25.0193C155.96 26.3741 161.804 25.4705 161.804 29.8661Z" fill="#707070"/>
<path d="M173.205 21.3889V33.2689H169.641V32.1517C169.229 32.6447 168.707 33.0331 168.117 33.2851C167.526 33.5371 166.885 33.6455 166.245 33.6013C163.845 33.6013 161.805 31.8913 161.805 28.6813V21.3889H165.369V28.1593C165.339 28.4423 165.371 28.7284 165.463 28.9975C165.554 29.2668 165.705 29.5128 165.901 29.7184C166.098 29.9239 166.337 30.0841 166.602 30.1879C166.866 30.2917 167.151 30.3366 167.435 30.3193C168.742 30.3193 169.644 29.5597 169.644 27.8725V21.3925L173.205 21.3889Z" fill="#707070"/>
<path d="M191.023 26.3185V33.6121H187.459V26.6269C187.459 25.4389 186.889 24.6793 185.749 24.6793C184.561 24.6793 183.895 25.5109 183.895 26.9125V33.6121H180.332V26.6269C180.332 25.4389 179.762 24.6793 178.621 24.6793C177.433 24.6793 176.768 25.5109 176.768 26.9125V33.6121H173.204V21.7321H176.768V22.8241C177.138 22.3397 177.623 21.9555 178.178 21.7067C178.735 21.4578 179.345 21.3523 179.952 21.3997C180.562 21.3699 181.169 21.4986 181.715 21.7733C182.26 22.0479 182.724 22.4592 183.064 22.9669C183.458 22.4357 183.982 22.0133 184.584 21.7392C185.186 21.4651 185.849 21.3484 186.509 21.3997C189.236 21.4009 191.023 23.3485 191.023 26.3185Z" fill="#707070"/>
<path d="M193.668 30.1448C195.128 30.1448 196.313 28.9607 196.313 27.5C196.313 26.0393 195.128 24.8552 193.668 24.8552C192.208 24.8552 191.023 26.0393 191.023 27.5C191.023 28.9607 192.208 30.1448 193.668 30.1448Z" fill="#707070"/>
</svg>
