<svg width="200" height="55" viewBox="0 0 200 55" fill="none" xmlns="http://www.w3.org/2000/svg">
<path fill-rule="evenodd" clip-rule="evenodd" d="M25.4106 27.9353L25.4126 27.7349L25.4166 27.5344L25.4226 27.3339L25.4307 27.1334L25.4408 26.9329L25.4531 26.7324L25.4673 26.532L25.4837 26.3316L25.5021 26.1313L25.5225 25.931L25.545 25.731L25.5696 25.531L25.5963 25.3312L25.625 25.1316L25.6557 24.9322L25.6885 24.7331L25.7234 24.5341L25.7603 24.3355L25.7993 24.1371L25.8403 23.939L25.8834 23.7412L25.9285 23.5438L25.9756 23.3468L26.0248 23.1501L26.076 22.9539L26.1293 22.758L26.1846 22.5626L26.2419 22.3677L26.3012 22.1733L26.3625 21.9794L26.4259 21.786L26.4913 21.5931L26.5586 21.4008L26.628 21.2091L26.6994 21.018L26.7727 20.8275L26.848 20.6377L26.9253 20.4485L27.0046 20.2601L27.0858 20.0723L27.169 19.8852L27.2542 19.6989L27.3412 19.5134L27.4303 19.3286L27.5212 19.1446L27.6141 18.9615L27.7089 18.7792L27.8056 18.5977L27.9041 18.4172L28.0046 18.2375L28.107 18.0587L28.2112 17.8809L28.3173 17.704L28.4252 17.5281L28.535 17.3532L28.6466 17.1793L28.7601 17.0065L28.8753 16.8346L28.9924 16.6639L29.1113 16.4942L29.2319 16.3256L29.3544 16.1582L29.4785 15.9918L29.6045 15.8267L29.7322 15.6627L29.8616 15.4998L29.9927 15.3382L30.1256 15.1779L30.2601 15.0187L30.3963 14.8608L30.5342 14.7042L30.6737 14.5489L30.8149 14.3949L30.9578 14.2422L31.1022 14.0909L31.2482 13.9409L31.3959 13.7923L31.5451 13.6451L31.6959 13.4993L31.8482 13.3549L32.0021 13.2119L32.1575 13.0704L32.3144 12.9304L32.4728 12.7919L32.6327 12.6548L32.7941 12.5193L32.9569 12.3853L33.1211 12.2529L33.2868 12.122L33.4538 11.9927L33.6222 11.8649L33.7921 11.7388L33.9633 11.6143L34.1358 11.4914L34.3096 11.3702L34.4848 11.2506L34.6612 11.1327L34.8389 11.0165L35.0179 10.902L35.1982 10.7892L35.3796 10.6781L35.5623 10.5688L35.7461 10.4612L35.9311 10.3553L36.1173 10.2513L36.3046 10.149L36.493 10.0485L36.6825 9.94987L36.8731 9.85302L37.0648 9.75801L37.2575 9.66484L37.4513 9.57352L37.646 9.48407L37.8418 9.3965L38.0385 9.31081L38.2362 9.22702L38.4348 9.14514L38.6343 9.06517L38.8347 8.98712L39.036 8.91102L39.2381 8.83685L39.4411 8.76465L39.6449 8.6944L39.8495 8.62612L40.0548 8.55983L40.2609 8.49552L40.4678 8.43321L40.6754 8.37291L40.8836 8.31462L41.0926 8.25834L41.3022 8.20409L41.5124 8.15188L41.7232 8.10172L41.9347 8.05359L42.1467 8.00753L42.3592 7.96352L42.5723 7.92158L42.7859 7.88172L43 7.84393L43.2146 7.80823L43.4296 7.77462L43.645 7.7431L43.8608 7.71369L44.077 7.68638L44.2936 7.66118L44.5105 7.63808L44.7277 7.61712L44.9452 7.59827L45.163 7.58154L45.381 7.56695L46.5534 7.5L46.6203 13.1487L46.6586 13.1482L46.8205 13.148L46.9824 13.1494L47.1443 13.1523L47.3064 13.1569L47.4684 13.163L47.6305 13.1707L47.7926 13.18L47.9547 13.191L48.1167 13.2035L48.2788 13.2176L48.4407 13.2333L48.6026 13.2506L48.7643 13.2696L48.926 13.2901L49.0875 13.3122L49.2489 13.3359L49.4101 13.3612L49.5712 13.3881L49.732 13.4166L49.8927 13.4467L50.0531 13.4784L50.2132 13.5116L50.3732 13.5465L50.5328 13.5829L50.6921 13.621L50.8512 13.6606L51.0099 13.7018L51.1682 13.7446L51.3262 13.7889L51.4839 13.8349L51.6411 13.8824L51.7979 13.9314L51.9543 13.9821L52.1103 14.0343L52.2658 14.088L52.4208 14.1433L52.5754 14.2002L52.7294 14.2586L52.8829 14.3185L53.0359 14.38L53.1883 14.4431L53.3401 14.5076L53.4914 14.5737L53.6421 14.6412L53.7921 14.7104L53.9415 14.7809L54.0903 14.8531L54.2384 14.9267L54.3858 15.0018L54.5325 15.0784L54.6785 15.1564L54.8238 15.236L54.9683 15.3169L55.1121 15.3994L55.2551 15.4833L55.3973 15.5687L55.5387 15.6555L55.6793 15.7437L55.819 15.8334L55.9579 15.9244L56.0959 16.0169L56.2331 16.1108L56.3693 16.206L56.5047 16.3027L56.6391 16.4007L56.7725 16.5001L56.9051 16.6009L57.0366 16.703L57.1672 16.8065L57.2967 16.9112L57.4253 17.0173L57.5528 17.1248L57.6793 17.2335L57.8048 17.3435L57.9292 17.4548L58.0524 17.5674L58.1746 17.6813L58.2957 17.7964L58.4157 17.9127L58.5345 18.0303L58.6522 18.1491L58.7687 18.2692L58.8841 18.3904L58.9982 18.5128L59.1112 18.6364L59.2229 18.7612L59.3334 18.8871L59.4427 19.0142L59.5507 19.1424L59.6575 19.2717L59.763 19.4022L59.8672 19.5337L59.9701 19.6663L60.0717 19.8L60.172 19.9348L60.2709 20.0706L60.3685 20.2075L60.4647 20.3454L60.5596 20.4842L60.6531 20.6241L60.7452 20.765L60.8359 20.9069L60.9251 21.0497L61.013 21.1934L61.0994 21.3381L61.1844 21.4837L61.2679 21.6302L61.35 21.7776L61.4306 21.9259L61.5097 22.075L61.5873 22.225L61.6634 22.3758L61.738 22.5274L61.8111 22.6799L61.8827 22.8331L61.9527 22.9871L62.0212 23.1419L62.0881 23.2974L62.1534 23.4537L62.2172 23.6106L62.2794 23.7683L62.34 23.9266L62.399 24.0857L62.4564 24.2453L62.5122 24.4057L62.5664 24.5666L62.619 24.7282L62.6699 24.8903L62.7192 25.053L62.7668 25.2163L62.8128 25.3801L62.8571 25.5445L62.8998 25.7094L62.9407 25.8747L62.9801 26.0406L63.0177 26.2069L63.0536 26.3737L63.0879 26.5408L63.1204 26.7085L63.1512 26.8765L63.1804 27.0449L63.2078 27.2136L63.2335 27.3827L63.2575 27.5522L63.2797 27.7219L63.3002 27.892L63.319 28.0623L63.336 28.2329L63.3513 28.4037L63.3649 28.5748L63.3767 28.7461L63.3867 28.9176L63.395 29.0892L63.4016 29.2611L63.4063 29.433L63.4094 29.6051L63.4106 29.7773L63.4101 29.9496L63.4078 30.122L63.4037 30.2945L63.3979 30.4669L63.3903 30.6394L63.381 30.8119L63.3698 30.9844L63.3569 31.1569L63.3422 31.3293L63.3257 31.5017L63.3075 31.674L63.2874 31.8461L63.2656 32.0182L63.2421 32.1901L63.2167 32.3619L63.1896 32.5335L63.1607 32.7049L63.13 32.8761L63.0976 33.0471L63.0634 33.2179L63.0274 33.3884L62.9896 33.5586L62.9501 33.7286L62.9089 33.8982L62.8658 34.0675L62.821 34.2364L62.7745 34.405L62.7262 34.5732L62.6762 34.741L62.6244 34.9085L62.5708 35.0754L62.5156 35.242L62.4586 35.408L62.3998 35.5736L62.3394 35.7387L62.2772 35.9032L62.2133 36.0672L62.1477 36.2307L62.0804 36.3936L62.0114 36.5559L61.9407 36.7177L61.8683 36.8787L61.7942 37.0392L61.7184 37.199L61.641 37.3581L61.5618 37.5166L61.4811 37.6743L61.3986 37.8314L61.3146 37.9876L61.2288 38.1432L61.1415 38.2979L61.0525 38.4519L60.9619 38.6051L60.8697 38.7574L60.7759 38.909L60.6804 39.0596L60.5834 39.2094L60.4849 39.3583L60.3847 39.5063L60.283 39.6534L60.1797 39.7996L60.0749 39.9448L59.9685 40.0891L59.8606 40.2324L59.7512 40.3747L59.6403 40.5159L59.5279 40.6562L59.414 40.7954L59.2986 40.9335L59.1817 41.0706L59.0634 41.2066L58.9436 41.3415L58.8224 41.4753L58.6998 41.608L58.5758 41.7395L58.4503 41.8699L58.3235 41.999L58.1952 42.127L58.0656 42.2538L57.9347 42.3794L57.8024 42.5038L57.6688 42.6269L57.5338 42.7488L57.3975 42.8693L57.26 42.9886L57.1211 43.1067L56.981 43.2234L56.8396 43.3387L56.697 43.4528L56.5531 43.5655L56.408 43.6768L56.2617 43.7867L56.1142 43.8953L55.9656 44.0025L55.8157 44.1082L55.6647 44.2126L55.5126 44.3155L55.3594 44.4169L55.205 44.5169L55.0496 44.6155L54.8931 44.7125L54.7355 44.8081L54.5768 44.9021L54.4171 44.9947L54.2565 45.0857L54.0947 45.1751L53.9321 45.2631L53.7684 45.3494L53.6038 45.4342L53.4382 45.5175L53.2717 45.5991L53.1043 45.6791L52.936 45.7576L52.7668 45.8344L52.5968 45.9096L52.4259 45.9831L52.2542 46.055L52.0817 46.1253L51.9084 46.1939L51.7343 46.2608L51.5594 46.3261L51.3838 46.3896L51.2074 46.4515L51.0304 46.5116L50.8527 46.5701L50.6742 46.6268L50.4951 46.6818L50.3154 46.7351L50.1351 46.7866L49.9541 46.8364L49.7726 46.8845L49.5904 46.9307L49.4078 46.9752L49.2246 47.018L49.0408 47.0589L48.8566 47.0981L48.6719 47.1355L48.4867 47.1711L48.3011 47.2049L48.1151 47.2368L47.9286 47.267L47.7418 47.2954L47.5545 47.3219L47.367 47.3466L47.1791 47.3695L46.9908 47.3905L46.8023 47.4097L46.6135 47.4271L46.4245 47.4426L46.2352 47.4563L46.0457 47.4681L45.8559 47.4781L45.666 47.4862L45.476 47.4924L45.2857 47.4968L45.0954 47.4993L44.9049 47.5L44.7144 47.4988L44.5238 47.4957L44.3331 47.4908L44.1424 47.4839L43.9517 47.4752L43.761 47.4647L43.5704 47.4522L43.3797 47.4379L43.1892 47.4217L42.9987 47.4036L42.8083 47.3837L42.6181 47.3619L42.428 47.3382L42.238 47.3126L42.0483 47.2851L41.8587 47.2558L41.6694 47.2246L41.4803 47.1916L41.2914 47.1566L41.1029 47.1198L40.9146 47.0812L40.7267 47.0406L40.539 46.9982L40.3518 46.954L40.1649 46.9079L39.9784 46.8599L39.7923 46.8101L39.6067 46.7585L39.4215 46.705L39.2367 46.6497L39.0525 46.5925L38.8688 46.5335L38.6856 46.4727L38.5029 46.41L38.3208 46.3455L38.1393 46.2793L37.9584 46.2112L37.7781 46.1413L37.5985 46.0696L37.4195 45.9961L37.2412 45.9208L37.0636 45.8438L36.8867 45.765L36.7105 45.6844L36.5351 45.602L36.3605 45.5179L36.1867 45.432L36.0136 45.3444L35.8414 45.2551L35.6701 45.164L35.4995 45.0713L35.3299 44.9768L35.1612 44.8806L34.9934 44.7827L34.8265 44.6831L34.6606 44.5819L34.4956 44.4789L34.3316 44.3744L34.1687 44.2681L34.0067 44.1603L33.8458 44.0507L33.686 43.9396L33.5272 43.8269L33.3696 43.7125L33.213 43.5966L33.0575 43.479L32.9032 43.3599L32.75 43.2393L32.5981 43.117L32.4473 42.9933L32.2977 42.868L32.1493 42.7412L32.0022 42.6129L31.8563 42.483L31.7117 42.3517L31.5684 42.219L31.4264 42.0847L31.2857 41.9491L31.1463 41.8119L31.0083 41.6734L30.8717 41.5335L30.7364 41.3921L30.6025 41.2494L30.47 41.1053L30.339 40.9598L30.2094 40.813L30.0812 40.6649L29.9545 40.5154L29.8293 40.3647L29.7056 40.2126L29.5834 40.0593L29.4627 39.9047L29.3436 39.7489L29.226 39.5918L29.1099 39.4335L28.9955 39.274L28.8826 39.1133L28.7713 38.9515L28.6617 38.7885L28.5536 38.6243L28.4472 38.4591L28.3425 38.2927L28.2394 38.1252L28.138 37.9567L28.0383 37.787L27.9403 37.6164L27.844 37.4447L27.7494 37.272L27.6565 37.0982L27.5654 36.9235L27.4761 36.7479L27.3885 36.5713L27.3027 36.3938L27.2186 36.2153L27.1364 36.036L27.056 35.8557L26.9773 35.6747L26.9005 35.4927L26.8256 35.31L26.7525 35.1264L26.6812 34.942L26.6118 34.7569L26.5443 34.571L26.4786 34.3844L26.4149 34.1971L26.353 34.009L26.293 33.8203L26.235 33.6309L26.1789 33.4409L26.1246 33.2502L26.0724 33.0589L26.022 32.8671L25.9736 32.6747L25.9272 32.4817L25.8827 32.2882L25.8402 32.0941L25.7997 31.8996L25.7611 31.7046L25.7245 31.5092L25.6899 31.3133L25.6574 31.117L25.6268 30.9203L25.5982 30.7232L25.5716 30.5257L25.547 30.3279L25.5245 30.1298L25.5039 29.9314L25.4854 29.7328L25.469 29.5338L25.4545 29.3346L25.4421 29.1352L25.4318 28.9356L25.4235 28.7358L25.4172 28.5359L25.4129 28.3358L25.4108 28.1356L25.4106 27.9353ZM44.7887 13.267L44.7431 9.41679L44.6998 9.42097L44.501 9.44213L44.3027 9.46521L44.1045 9.49025L43.9071 9.51715L43.7099 9.54601L43.5129 9.5768L43.3165 9.60948L43.1203 9.64411L42.9251 9.68054L42.7296 9.71901L42.5355 9.75921L42.3411 9.80144L42.1477 9.84546L41.9545 9.89144L41.7622 9.93918L41.5704 9.98884L41.3791 10.0403L41.1884 10.0937L40.9986 10.1489L40.8091 10.2059L40.6206 10.2648L40.4326 10.3255L40.2456 10.3878L40.0589 10.4522L39.8732 10.5183L39.6884 10.5861L39.5041 10.6558L39.3208 10.7271L39.1385 10.8002L38.9567 10.8752L38.7758 10.9519L38.5958 11.0303L38.4168 11.1104L38.2387 11.1922L38.0616 11.2756L37.8851 11.3609L37.7099 11.4478L37.5356 11.5363L37.3623 11.6266L37.19 11.7184L37.0189 11.8119L36.8485 11.9071L36.6792 12.0039L36.5114 12.1021L36.3441 12.2023L36.1784 12.3038L36.0138 12.4068L35.85 12.5115L35.6875 12.6178L35.5262 12.7256L35.3664 12.8347L35.2072 12.9458L35.0496 13.058L34.8932 13.1717L34.7379 13.287L34.584 13.4037L34.4315 13.5218L34.2799 13.6416L34.13 13.7625L33.9812 13.8849L33.8338 14.0087L33.6877 14.134L33.5431 14.2605L33.3996 14.3885L33.2577 14.5177L33.1171 14.6484L32.978 14.7802L32.8403 14.9134L32.704 15.0478L32.5692 15.1835L32.4356 15.3207L32.3038 15.4587L32.1735 15.598L32.0444 15.7389L31.917 15.8807L31.7912 16.0235L31.6667 16.1678L31.544 16.313L31.4227 16.4595L31.303 16.607L31.1848 16.7557L31.0682 16.9054L30.9533 17.0561L30.84 17.2079L30.7281 17.3609L30.6181 17.5146L30.5096 17.6696L30.4028 17.8254L30.2976 17.9822L30.194 18.14L30.0922 18.2987L29.992 18.4582L29.8935 18.6187L29.7968 18.78L29.7016 18.9423L29.6082 19.1055L29.5166 19.2693L29.4267 19.434L29.3384 19.5996L29.252 19.7659L29.1672 19.933L29.0843 20.1007L29.0031 20.2692L28.9237 20.4384L28.8461 20.6084L28.7702 20.7789L28.6961 20.9502L28.6238 21.1221L28.5534 21.2945L28.4847 21.4676L28.4178 21.6413L28.3527 21.8155L28.2895 21.9903L28.2281 22.1655L28.1685 22.3414L28.1107 22.5177L28.0548 22.6945L28.0008 22.8716L27.9485 23.0494L27.8981 23.2274L27.8496 23.4059L27.8029 23.5847L27.7581 23.764L27.7151 23.9435L27.674 24.1234L27.6348 24.3036L27.5974 24.4841L27.5619 24.6648L27.5283 24.8458L27.4965 25.027L27.4666 25.2085L27.4386 25.3901L27.4125 25.5719L27.3882 25.7539L27.3658 25.936L27.3453 26.1182L27.3267 26.3006L27.3099 26.483L27.2951 26.6654L27.2821 26.848L27.2709 27.0306L27.2617 27.2131L27.2543 27.3957L27.2488 27.5782L27.2452 27.7607L27.2434 27.9431L27.2436 28.1255L27.2455 28.3077L27.2494 28.4899L27.2551 28.6719L27.2627 28.8537L27.2721 29.0354L27.2834 29.2168L27.2965 29.3981L27.3115 29.5791L27.3284 29.7599L27.347 29.9405L27.3676 30.1207L27.3899 30.3007L27.4141 30.4803L27.4401 30.6596L27.4679 30.8386L27.4976 31.0171L27.529 31.1953L27.5623 31.3731L27.5974 31.5504L27.6343 31.7274L27.6729 31.9038L27.7134 32.0798L27.7556 32.2553L27.7996 32.4303L27.8454 32.6048L27.8929 32.7786L27.9422 32.952L27.9932 33.1248L28.046 33.297L28.1005 33.4686L28.1568 33.6395L28.2147 33.8098L28.2744 33.9794L28.3358 34.1484L28.3988 34.3166L28.4636 34.4842L28.5301 34.651L28.5982 34.8171L28.668 34.9824L28.7394 35.1469L28.8125 35.3107L28.8872 35.4737L28.9636 35.6358L29.0415 35.7971L29.1211 35.9575L29.2023 36.1171L29.285 36.2758L29.3694 36.4336L29.4553 36.5905L29.5428 36.7464L29.6318 36.9014L29.7223 37.0555L29.8144 37.2085L29.908 37.3606L30.0032 37.5117L30.0997 37.6617L30.1978 37.8108L30.2974 37.9588L30.3984 38.1057L30.5009 38.2516L30.6048 38.3964L30.7101 38.5401L30.8169 38.6827L30.925 38.8241L31.0346 38.9644L31.1455 39.1035L31.2578 39.2415L31.3714 39.3784L31.4863 39.514L31.6026 39.6484L31.7202 39.7816L31.8392 39.9136L31.9593 40.0443L32.0808 40.1738L32.2035 40.302L32.3274 40.429L32.4527 40.5547L32.5791 40.679L32.7067 40.8021L32.8355 40.9238L32.9655 41.0443L33.0966 41.1634L33.2289 41.2811L33.3623 41.3974L33.4968 41.5124L33.6325 41.626L33.7691 41.7382L33.907 41.8491L34.0458 41.9584L34.1857 42.0664L34.3266 42.173L34.4686 42.2781L34.6115 42.3817L34.7554 42.4839L34.9002 42.5846L35.0461 42.6839L35.1928 42.7816L35.3406 42.8779L35.4891 42.9727L35.6386 43.0659L35.789 43.1577L35.9401 43.2479L36.0922 43.3366L36.245 43.4237L36.3987 43.5093L36.5531 43.5933L36.7084 43.6758L36.8643 43.7567L37.021 43.8361L37.1785 43.9138L37.3367 43.99L37.4955 44.0646L37.655 44.1376L37.8151 44.2089L37.976 44.2787L38.1374 44.3468L38.2995 44.4134L38.4621 44.4783L38.6253 44.5415L38.7891 44.6032L38.9533 44.6632L39.1181 44.7215L39.2835 44.7782L39.4493 44.8333L39.6156 44.8867L39.7822 44.9384L39.9495 44.9885L40.117 45.0369L40.285 45.0836L40.4534 45.1287L40.6221 45.1721L40.7912 45.2138L40.9605 45.2538L41.1303 45.2922L41.3003 45.3288L41.4705 45.3638L41.6411 45.3971L41.8119 45.4287L41.9829 45.4586L42.1541 45.4868L42.3255 45.5133L42.4971 45.5381L42.6689 45.5612L42.8407 45.5827L43.0127 45.6024L43.1848 45.6204L43.357 45.6368L43.5293 45.6514L43.7016 45.6644L43.8739 45.6756L44.0463 45.6852L44.2186 45.693L44.3909 45.6992L44.5632 45.7037L44.7355 45.7064L44.9076 45.7075L45.0797 45.7069L45.2517 45.7046L45.4235 45.7007L45.5952 45.695L45.7668 45.6877L45.9382 45.6787L46.1093 45.668L46.2803 45.6557L46.4511 45.6417L46.6216 45.626L46.7918 45.6086L46.9618 45.5896L47.1314 45.569L47.3008 45.5467L47.4698 45.5227L47.6385 45.4971L47.8068 45.4699L47.9748 45.441L48.1424 45.4105L48.3095 45.3784L48.4762 45.3447L48.6425 45.3093L48.8083 45.2724L48.9736 45.2338L49.1385 45.1936L49.3028 45.1519L49.4666 45.1085L49.6298 45.0636L49.7926 45.0171L49.9547 44.969L50.1163 44.9194L50.2772 44.8683L50.4376 44.8155L50.5973 44.7613L50.7562 44.7055L50.9147 44.6481L51.0724 44.5893L51.2294 44.5289L51.3857 44.4671L51.5412 44.4038L51.696 44.3389L51.8501 44.2726L52.0034 44.2048L52.1558 44.1356L52.3076 44.0649L52.4585 43.9927L52.6085 43.9192L52.7578 43.8441L52.9061 43.7677L53.0536 43.6899L53.2003 43.6106L53.3459 43.53L53.4907 43.448L53.6345 43.3647L53.7776 43.2799L53.9194 43.1939L54.0606 43.1064L54.2005 43.0177L54.3395 42.9276L54.4776 42.8362L54.6147 42.7434L54.7505 42.6496L54.8854 42.5543L55.0193 42.4578L55.1521 42.3601L55.2839 42.261L55.4144 42.1609L55.5441 42.0593L55.6724 41.9567L55.7996 41.8529L55.9259 41.7478L56.0509 41.6415L56.1746 41.5342L56.2973 41.4256L56.4187 41.316L56.539 41.2052L56.6581 41.0933L56.7758 40.9804L56.8925 40.8662L57.0079 40.751L57.122 40.6348L57.2349 40.5175L57.3464 40.3993L57.4566 40.2801L57.5658 40.1595L57.6734 40.0383L57.7799 39.9159L57.8849 39.7927L57.9887 39.6684L58.0911 39.5433L58.1921 39.4172L58.2919 39.2901L58.3902 39.1623L58.4873 39.0334L58.5828 38.9038L58.6771 38.7732L58.7701 38.6417L58.8613 38.5097L58.9514 38.3766L59.0399 38.2429L59.1271 38.1082L59.213 37.9727L59.2972 37.8367L59.38 37.6999L59.4615 37.562L59.5413 37.4239L59.6198 37.2848L59.6969 37.145L59.7723 37.0048L59.8464 36.8636L59.919 36.7218L59.9899 36.5799L60.0595 36.4368L60.1276 36.2932L60.1941 36.1492L60.2591 36.0046L60.3226 35.8594L60.3845 35.7138L60.445 35.5674L60.5039 35.4206L60.5612 35.2737L60.617 35.1257L60.6712 34.9777L60.724 34.829L60.7752 34.68L60.8248 34.5305L60.8727 34.381L60.9193 34.2304L60.9641 34.08L61.0074 33.9291L61.0492 33.778L61.0894 33.6263L61.1279 33.4746L61.165 33.3224L61.2004 33.1699L61.2343 33.0173L61.2666 32.8643L61.2972 32.7114L61.3263 32.5578L61.3538 32.4046L61.3797 32.2508L61.404 32.0969L61.4267 31.943L61.4479 31.7888L61.4674 31.6348L61.4854 31.4801L61.5017 31.326L61.5165 31.1714L61.5296 31.0171L61.5412 30.8623L61.5512 30.7081L61.5596 30.5534L61.5664 30.3986L61.5716 30.2442L61.5753 30.0901L61.5773 29.9354L61.5778 29.781L61.5767 29.6268L61.574 29.4727L61.5697 29.3186L61.5638 29.1651L61.5564 29.011L61.5474 28.8576L61.5368 28.7042L61.5247 28.5513L61.511 28.3981L61.4958 28.2456L61.479 28.093L61.4606 27.9409L61.4407 27.7889L61.4193 27.6374L61.3962 27.4858L61.3717 27.3349L61.3457 27.1845L61.3181 27.034L61.2889 26.884L61.2583 26.7346L61.2261 26.5851L61.1926 26.4367L61.1573 26.2881L61.1208 26.1405L61.0825 25.9927L61.0429 25.846L61.0018 25.6995L60.9592 25.5533L60.9152 25.408L60.8697 25.2632L60.8226 25.1185L60.7743 24.9749L60.7243 24.8314L60.6731 24.6888L60.6203 24.5465L60.5662 24.4052L60.5105 24.2641L60.4535 24.1238L60.3952 23.9844L60.3355 23.8456L60.2741 23.707L60.2118 23.5697L60.1477 23.4325L60.0825 23.2966L60.0159 23.1612L59.9478 23.0263L59.8786 22.8925L59.8079 22.7593L59.7358 22.6267L59.6628 22.4954L59.5881 22.3644L59.5123 22.2345L59.435 22.1052L59.3568 21.9772L59.2769 21.8495L59.1961 21.723L59.1138 21.5971L59.0304 21.4723L58.9459 21.3486L58.8599 21.2254L58.7728 21.1033L58.6846 20.9821L58.5951 20.862L58.5045 20.7426L58.4127 20.6244L58.3198 20.507L58.2257 20.3907L58.1305 20.2754L58.0341 20.161L57.9366 20.0477L57.8381 19.9354L57.7386 19.8242L57.6379 19.714L57.5359 19.6047L57.4334 19.4969L57.3292 19.3897L57.2245 19.284L57.1186 19.1791L57.0118 19.0755L56.9036 18.9727L56.795 18.8715L56.685 18.7711L56.5741 18.6719L56.4626 18.574L56.35 18.4772L56.2361 18.3813L56.1216 18.2868L56.0063 18.1935L55.89 18.1014L55.7728 18.0104L55.655 17.9209L55.5359 17.8321L55.4164 17.745L55.2959 17.659L55.1745 17.5741L55.0526 17.4906L54.9294 17.4081L54.8062 17.3273L54.6816 17.2474L54.5566 17.1689L54.4306 17.0916L54.3041 17.0156L54.1769 16.941L54.0492 16.8678L53.9203 16.7955L53.7914 16.7249L53.6614 16.6554L53.5309 16.5873L53.3999 16.5206L53.2681 16.4551L53.1358 16.3909L53.003 16.3282L52.8695 16.2667L52.7357 16.2067L52.6012 16.1479L52.4619 16.0887L52.3309 16.0346L52.1946 15.9798L52.0585 15.9267L51.9213 15.8746L51.7841 15.8242L51.6463 15.775L51.5082 15.7273L51.3695 15.6808L51.2307 15.6359L51.0913 15.5923L50.9516 15.5501L50.8118 15.5094L50.6714 15.47L50.5305 15.4319L50.3898 15.3954L50.2488 15.3602L50.1069 15.3264L49.9655 15.2941L49.8234 15.2631L49.6813 15.2336L49.5387 15.2054L49.3963 15.1787L49.2535 15.1534L49.1108 15.1296L48.9674 15.1071L48.8244 15.0861L48.6811 15.0665L48.5376 15.0483L48.3941 15.0315L48.2506 15.0161L48.107 15.0022L47.9633 14.9897L47.8195 14.9786L47.6756 14.9689L47.5321 14.9606L47.3885 14.9538L47.2444 14.9483L47.1011 14.9443L46.9575 14.9417L46.814 14.9405L46.6703 14.9407L46.6415 14.941L46.6868 18.7632L46.7683 18.7628L46.8732 18.7634L46.9781 18.765L47.0831 18.7677L47.1882 18.7714L47.2933 18.7762L47.3984 18.782L47.5036 18.7888L47.6088 18.7967L47.714 18.8056L47.8192 18.8156L47.9243 18.8266L48.0295 18.8387L48.1346 18.8518L48.2396 18.8659L48.3446 18.8812L48.4495 18.8974L48.5543 18.9147L48.6591 18.9331L48.7637 18.9525L48.8682 18.973L48.9726 18.9945L49.0769 19.017L49.181 19.0406L49.2849 19.0653L49.3887 19.091L49.4922 19.1177L49.5956 19.1455L49.6988 19.1743L49.8018 19.2042L49.9046 19.2351L50.0071 19.267L50.1093 19.3L50.2113 19.334L50.3131 19.3691L50.4145 19.4052L50.5157 19.4423L50.6165 19.4804L50.7171 19.5196L50.8173 19.5598L50.9172 19.601L51.0167 19.6433L51.1159 19.6865L51.2147 19.7308L51.3131 19.776L51.4111 19.8223L51.5088 19.8696L51.606 19.9179L51.7028 19.9672L51.7992 20.0175L51.8951 20.0687L51.9906 20.121L52.0856 20.1742L52.1801 20.2284L52.2742 20.2836L52.3678 20.3398L52.4608 20.3969L52.5533 20.455L52.6453 20.5141L52.7368 20.5741L52.8277 20.635L52.9181 20.6969L53.0079 20.7598L53.0971 20.8235L53.1857 20.8882L53.2737 20.9539L53.3612 21.0204L53.4479 21.0879L53.5341 21.1563L53.6196 21.2255L53.7045 21.2957L53.7887 21.3668L53.8723 21.4387L53.9552 21.5115L54.0374 21.5852L54.1189 21.6598L54.1996 21.7352L54.2797 21.8115L54.359 21.8886L54.4376 21.9666L54.5155 22.0454L54.5926 22.1251L54.669 22.2055L54.7445 22.2868L54.8193 22.3689L54.8933 22.4518L54.9665 22.5354L55.0389 22.6199L55.1105 22.7051L55.1813 22.7911L55.2512 22.8779L55.3203 22.9654L55.3885 23.0537L55.4559 23.1427L55.5224 23.2325L55.588 23.3229L55.6528 23.4141L55.7166 23.506L55.7796 23.5986L55.8416 23.6919L55.9027 23.7858L55.9629 23.8805L56.0222 23.9758L56.0806 24.0717L56.138 24.1683L56.1944 24.2656L56.2499 24.3634L56.3044 24.4619L56.3579 24.561L56.4105 24.6607L56.4621 24.761L56.5126 24.8619L56.5622 24.9634L56.6108 25.0654L56.6583 25.1679L56.7048 25.2711L56.7503 25.3747L56.7948 25.4789L56.8382 25.5836L56.8806 25.6888L56.9219 25.7945L56.9621 25.9006L57.0013 26.0073L57.0394 26.1144L57.0765 26.222L57.1125 26.33L57.1473 26.4385L57.1811 26.5473L57.2138 26.6566L57.2454 26.7663L57.2759 26.8764L57.3052 26.9869L57.3335 27.0977L57.3606 27.2089L57.3866 27.3204L57.4115 27.4323L57.4352 27.5445L57.4578 27.657L57.4792 27.7698L57.4995 27.883L57.5187 27.9964L57.5367 28.11L57.5535 28.224L57.5692 28.3381L57.5837 28.4525L57.5971 28.5672L57.6092 28.6821L57.6202 28.7971L57.6301 28.9124L57.6387 29.0278L57.6462 29.1434L57.6524 29.2591L57.6575 29.375L57.6614 29.4911L57.6641 29.6072L57.6656 29.7235L57.6659 29.8399L57.665 29.9563L57.6629 30.0728L57.6596 30.1894L57.6551 30.3061L57.6494 30.4227L57.6425 30.5394L57.6344 30.6562L57.6251 30.7729L57.6145 30.8896L57.6028 31.0063L57.5898 31.1229L57.5757 31.2396L57.5603 31.3561L57.5437 31.4726L57.5259 31.589L57.5069 31.7053L57.4867 31.8215L57.4652 31.9376L57.4426 32.0536L57.4187 32.1694L57.3936 32.2851L57.3674 32.4006L57.3399 32.5159L57.3112 32.631L57.2813 32.746L57.2502 32.8607L57.2179 32.9752L57.1844 33.0894L57.1497 33.2034L57.1138 33.3172L57.0766 33.4307L57.0383 33.5438L56.9988 33.6567L56.9582 33.7693L56.9163 33.8815L56.8732 33.9934L56.829 34.105L56.7836 34.2162L56.737 34.3271L56.6892 34.4375L56.6403 34.5476L56.5902 34.6573L56.5389 34.7665L56.4865 34.8753L56.4329 34.9837L56.3781 35.0916L56.3222 35.1991L56.2652 35.306L56.207 35.4125L56.1477 35.5185L56.0873 35.624L56.0257 35.7289L55.963 35.8334L55.8992 35.9372L55.8343 36.0406L55.7682 36.1433L55.7011 36.2455L55.6328 36.347L55.5635 36.448L55.4931 36.5484L55.4216 36.6481L55.349 36.7472L55.2754 36.8457L55.2007 36.9435L55.1249 37.0406L55.0481 37.137L54.9702 37.2328L54.8913 37.3278L54.8114 37.4222L54.7304 37.5158L54.6484 37.6087L54.5654 37.7008L54.4814 37.7922L54.3964 37.8828L54.3105 37.9727L54.2235 38.0617L54.1356 38.15L54.0466 38.2374L53.9568 38.3241L53.8659 38.4099L53.7742 38.4948L53.6815 38.579L53.5878 38.6622L53.4933 38.7446L53.3978 38.8262L53.3015 38.9068L53.2042 38.9866L53.1061 39.0654L53.007 39.1433L52.9071 39.2203L52.8064 39.2964L52.7048 39.3715L52.6023 39.4457L52.4991 39.519L52.395 39.5912L52.2901 39.6625L52.1843 39.7328L52.0778 39.8021L51.9705 39.8704L51.8625 39.9377L51.7536 40.0039L51.6441 40.0692L51.5337 40.1334L51.4227 40.1965L51.3109 40.2586L51.1984 40.3197L51.0852 40.3797L50.9713 40.4386L50.8567 40.4964L50.7415 40.5531L50.6256 40.6088L50.509 40.6633L50.3918 40.7167L50.274 40.769L50.1556 40.8202L50.0365 40.8702L49.9169 40.9191L49.7967 40.9669L49.6759 41.0135L49.5546 41.059L49.4327 41.1033L49.3103 41.1464L49.1873 41.1883L49.0639 41.2291L48.9399 41.2686L48.8155 41.307L48.6906 41.3442L48.5652 41.3801L48.4394 41.4149L48.3131 41.4484L48.1864 41.4807L48.0593 41.5118L47.9318 41.5417L47.8038 41.5703L47.6756 41.5977L47.5469 41.6238L47.4179 41.6487L47.2886 41.6724L47.1589 41.6948L47.0289 41.7159L46.8987 41.7357L46.7681 41.7543L46.6372 41.7716L46.5061 41.7877L46.3748 41.8024L46.2432 41.8159L46.1114 41.8281L45.9794 41.839L45.8472 41.8486L45.7148 41.8569L45.5822 41.8639L45.4495 41.8696L45.3166 41.874L45.1836 41.8771L45.0505 41.8789L44.9172 41.8794L44.7839 41.8786L44.6506 41.8764L44.5171 41.873L44.3836 41.8682L44.2501 41.8621L44.1165 41.8547L43.983 41.846L43.8494 41.836L43.7159 41.8246L43.5824 41.8119L43.4489 41.7979L43.3155 41.7826L43.1822 41.766L43.0489 41.748L42.9158 41.7287L42.7828 41.7081L42.6499 41.6862L42.5171 41.6629L42.3845 41.6384L42.2521 41.6125L42.1199 41.5852L41.9878 41.5567L41.856 41.5269L41.7244 41.4957L41.593 41.4632L41.4619 41.4294L41.331 41.3943L41.2004 41.3579L41.0702 41.3202L40.9402 41.2812L40.8105 41.2409L40.6812 41.1992L40.5523 41.1563L40.4236 41.1121L40.2954 41.0666L40.1676 41.0198L40.0401 40.9717L39.9131 40.9223L39.7865 40.8717L39.6603 40.8197L39.5346 40.7665L39.4094 40.7121L39.2847 40.6563L39.1604 40.5993L39.0367 40.5411L38.9135 40.4816L38.7908 40.4208L38.6686 40.3588L38.5471 40.2956L38.4261 40.2311L38.3057 40.1654L38.1859 40.0985L38.0667 40.0303L37.9481 39.961L37.8302 39.8904L37.7129 39.8186L37.5963 39.7457L37.4804 39.6715L37.3652 39.5962L37.2507 39.5196L37.1369 39.4419L37.0238 39.3631L36.9115 39.2831L36.7999 39.2019L36.6891 39.1196L36.579 39.0361L36.4698 38.9515L36.3614 38.8658L36.2538 38.7789L36.147 38.691L36.041 38.6019L35.9359 38.5118L35.8317 38.4205L35.7283 38.3282L35.6258 38.2348L35.5243 38.1404L35.4236 38.0449L35.3238 37.9483L35.225 37.8507L35.1272 37.7521L35.0303 37.6524L34.9343 37.5518L34.8393 37.4501L34.7454 37.3475L34.6524 37.2438L34.5604 37.1392L34.4695 37.0336L34.3795 36.9271L34.2907 36.8196L34.2028 36.7111L34.1161 36.6018L34.0304 36.4915L33.9458 36.3803L33.8623 36.2682L33.7798 36.1553L33.6985 36.0414L33.6184 35.9267L33.5393 35.8111L33.4614 35.6947L33.3847 35.5775L33.3091 35.4594L33.2347 35.3405L33.1614 35.2208L33.0894 35.1003L33.0185 34.9791L32.9489 34.857L32.8804 34.7343L32.8132 34.6107L32.7472 34.4865L32.6824 34.3615L32.6189 34.2358L32.5567 34.1094L32.4957 33.9823L32.436 33.8546L32.3775 33.7261L32.3204 33.5971L32.2645 33.4674L32.21 33.337L32.1567 33.2061L32.1048 33.0746L32.0541 32.9424L32.0049 32.8097L31.9569 32.6765L31.9103 32.5426L31.865 32.4083L31.8211 32.2734L31.7786 32.138L31.7374 32.0022L31.6976 31.8658L31.6591 31.729L31.6221 31.5917L31.5864 31.4539L31.5522 31.3158L31.5193 31.1772L31.4879 31.0382L31.4578 30.8988L31.4292 30.7591L31.402 30.619L31.3762 30.4785L31.3518 30.3377L31.3289 30.1966L31.3074 30.0552L31.2874 29.9135L31.2688 29.7715L31.2516 29.6292L31.2359 29.4867L31.2217 29.344L31.2089 29.201L31.1976 29.0578L31.1877 28.9145L31.1793 28.7709L31.1724 28.6272L31.1669 28.4834L31.163 28.3394L31.1605 28.1953L31.1594 28.051L31.1599 27.9067L31.1618 27.7623L31.1653 27.6179L31.1702 27.4734L31.1766 27.3288L31.1845 27.1843L31.1939 27.0397L31.2048 26.8952L31.2171 26.7506L31.231 26.6062L31.2463 26.4617L31.2632 26.3174L31.2815 26.1731L31.3014 26.0289L31.3227 25.8848L31.3455 25.7409L31.3698 25.5971L31.3956 25.4535L31.4229 25.31L31.4517 25.1667L31.4819 25.0237L31.5137 24.8808L31.5469 24.7382L31.5816 24.5958L31.6178 24.4537L31.6555 24.3119L31.6947 24.1703L31.7353 24.0291L31.7775 23.8882L31.821 23.7476L31.8661 23.6073L31.9126 23.4675L31.9606 23.328L32.01 23.1889L32.0609 23.0502L32.1133 22.9119L32.1671 22.7741L32.2223 22.6367L32.279 22.4998L32.3372 22.3634L32.3967 22.2274L32.4577 22.092L32.5201 21.9571L32.584 21.8227L32.6492 21.6889L32.7159 21.5557L32.784 21.423L32.8534 21.291L32.9243 21.1595L32.9966 21.0287L33.0702 20.8985L33.1452 20.7689L33.2216 20.6401L33.2994 20.5119L33.3785 20.3844L33.4589 20.2576L33.5407 20.1315L33.6239 20.0062L33.7083 19.8816L33.7942 19.7578L33.8813 19.6347L33.9697 19.5124L34.0595 19.391L34.1505 19.2703L34.2429 19.1505L34.3365 19.0315L34.4314 18.9134L34.5275 18.7962L34.6249 18.6798L34.7236 18.5643L34.8235 18.4497L34.9246 18.3361L35.027 18.2234L35.1305 18.1116L35.2353 18.0008L35.3413 17.8909L35.4484 17.7821L35.5567 17.6742L35.6662 17.5673L35.7769 17.4615L35.8887 17.3566L36.0016 17.2529L36.1157 17.1501L36.2309 17.0485L36.3471 16.9479L36.4645 16.8484L36.583 16.75L36.7025 16.6527L36.8231 16.5565L36.9448 16.4615L37.0675 16.3676L37.1912 16.2749L37.316 16.1833L37.4417 16.0929L37.5684 16.0037L37.6962 15.9157L37.8249 15.8289L37.9545 15.7434L38.0852 15.659L38.2167 15.5759L38.3492 15.494L38.4826 15.4134L38.6169 15.3341L38.752 15.256L38.8881 15.1792L39.025 15.1038L39.1627 15.0296L39.3013 14.9567L39.4407 14.8852L39.5809 14.815L39.7219 14.7461L39.8637 14.6786L40.0063 14.6124L40.1496 14.5476L40.2937 14.4842L40.4385 14.4222L40.584 14.3615L40.7302 14.3022L40.877 14.2444L41.0246 14.188L41.1728 14.1329L41.3217 14.0794L41.4712 14.0272L41.6213 13.9765L41.772 13.9272L41.9232 13.8794L42.0751 13.833L42.2275 13.7881L42.3805 13.7447L42.5339 13.7028L42.6879 13.6623L42.8424 13.6234L42.9974 13.5859L43.1528 13.55L43.3087 13.5155L43.465 13.4826L43.6217 13.4511L43.7789 13.4213L43.9364 13.3929L44.0943 13.366L44.2526 13.3408L44.4112 13.317L44.5701 13.2948L44.7293 13.2741L44.7887 13.267ZM44.8559 18.9361L44.8101 15.0719L44.6796 15.0901L44.5393 15.1112L44.3989 15.1336L44.2594 15.1573L44.1197 15.1825L43.9807 15.2089L43.842 15.2367L43.7038 15.2658L43.5659 15.2963L43.4283 15.3282L43.2911 15.3613L43.1545 15.3958L43.018 15.4316L42.8869 15.4674L42.7472 15.5071L42.6123 15.5468L42.478 15.5878L42.3444 15.63L42.2111 15.6736L42.0783 15.7185L41.9461 15.7646L41.8146 15.8119L41.6836 15.8606L41.5532 15.9104L41.4233 15.9616L41.2944 16.0139L41.1655 16.0676L41.0376 16.1224L40.9103 16.1784L40.7839 16.2356L40.6578 16.2941L40.5324 16.3538L40.4081 16.4145L40.284 16.4766L40.1612 16.5397L40.0386 16.6042L39.9172 16.6695L39.796 16.7364L39.676 16.804L39.5568 16.8729L39.4382 16.943L39.3205 17.0141L39.2034 17.0865L39.0875 17.1597L38.9721 17.2342L38.8578 17.3097L38.7443 17.3862L38.6316 17.4639L38.5196 17.5427L38.4089 17.6222L38.2988 17.7031L38.1896 17.7849L38.0814 17.8677L37.9742 17.9514L37.8677 18.0363L37.7624 18.122L37.658 18.2087L37.5544 18.2966L37.4521 18.3851L37.3505 18.4748L37.2499 18.5654L37.1504 18.6568L37.052 18.7491L36.9543 18.8425L36.858 18.9365L36.7626 19.0315L36.6681 19.1275L36.5748 19.2242L36.4825 19.3219L36.3913 19.4203L36.3012 19.5195L36.2121 19.6196L36.124 19.7206L36.0374 19.8221L35.9516 19.9246L35.8669 20.0279L35.7834 20.1318L35.7011 20.2364L35.6197 20.342L35.5396 20.4481L35.4606 20.555L35.3828 20.6626L35.3061 20.7709L35.2307 20.8797L35.1564 20.9893L35.0832 21.0996L35.0112 21.2105L34.9405 21.3219L34.871 21.434L34.8026 21.5469L34.7354 21.6601L34.6695 21.774L34.6047 21.8885L34.5413 22.0033L34.479 22.1189L34.4178 22.2351L34.3581 22.3515L34.2995 22.4687L34.2422 22.5863L34.1861 22.7042L34.1313 22.8228L34.0777 22.9417L34.0254 23.0611L33.9743 23.1809L33.9246 23.3011L33.8761 23.4217L33.8288 23.5428L33.7828 23.6642L33.7382 23.7859L33.6947 23.9081L33.6527 24.0304L33.6118 24.1532L33.5723 24.2763L33.534 24.3997L33.4971 24.5233L33.4614 24.6472L33.4271 24.7713L33.3941 24.8958L33.3623 25.0204L33.3318 25.1453L33.3027 25.2704L33.2749 25.3956L33.2483 25.5211L33.2231 25.6467L33.1992 25.7724L33.1765 25.8984L33.1553 26.0244L33.1352 26.1506L33.1166 26.2767L33.0992 26.4031L33.0831 26.5295L33.0684 26.656L33.0549 26.7825L33.0428 26.9091L33.0319 27.0357L33.0224 27.1622L33.0142 27.2889L33.0073 27.4155L33.0017 27.542L32.9974 27.6685L32.9944 27.7949L32.9927 27.9213L32.9923 28.0477L32.9931 28.1739L32.9953 28.3L32.9988 28.426L33.0036 28.5518L33.0096 28.6776L33.017 28.8032L33.0256 28.9285L33.0355 29.0538L33.0467 29.1788L33.0591 29.3036L33.0729 29.4282L33.0879 29.5526L33.1041 29.6768L33.1217 29.8006L33.1404 29.9243L33.1605 30.0475L33.1818 30.1706L33.2043 30.2934L33.2281 30.4157L33.2531 30.5379L33.2793 30.6596L33.3068 30.7811L33.3355 30.902L33.3654 31.0227L33.3966 31.143L33.4289 31.2629L33.4624 31.3823L33.4972 31.5014L33.5331 31.62L33.5703 31.7382L33.6086 31.856L33.6481 31.9732L33.6888 32.0899L33.7306 32.2062L33.7736 32.322L33.8178 32.4373L33.8631 32.552L33.9095 32.6662L33.9571 32.7799L34.0058 32.893L34.0557 33.0055L34.1066 33.1175L34.1587 33.2288L34.2119 33.3396L34.2661 33.4498L34.3215 33.5593L34.3779 33.6683L34.4354 33.7766L34.494 33.8842L34.5536 33.9912L34.6143 34.0975L34.676 34.2031L34.7388 34.308L34.8026 34.4123L34.8674 34.5158L34.9332 34.6186L35.0001 34.7208L35.0678 34.822L35.1367 34.9227L35.2064 35.0225L35.2772 35.1216L35.3489 35.2199L35.4216 35.3174L35.4952 35.4141L35.5698 35.5101L35.6452 35.6052L35.7216 35.6995L35.7989 35.793L35.8771 35.8857L35.9562 35.9774L36.0362 36.0685L36.117 36.1585L36.1987 36.2478L36.2812 36.3361L36.3646 36.4236L36.4488 36.5102L36.5339 36.5959L36.6197 36.6807L36.7064 36.7646L36.7939 36.8476L36.882 36.9296L36.9711 37.0108L37.0608 37.0909L37.1513 37.1701L37.2426 37.2484L37.3346 37.3257L37.4273 37.4021L37.5207 37.4774L37.6148 37.5518L37.7096 37.6252L37.8051 37.6977L37.9013 37.7691L37.998 37.8395L38.0954 37.9089L38.1935 37.9773L38.2922 38.0447L38.3916 38.1111L38.4915 38.1764L38.592 38.2407L38.6931 38.304L38.7947 38.3662L38.8969 38.4274L38.9997 38.4875L39.1029 38.5465L39.2068 38.6045L39.311 38.6614L39.4159 38.7173L39.5212 38.7721L39.6269 38.8257L39.7332 38.8784L39.84 38.9299L39.9471 38.9804L40.0546 39.0297L40.1627 39.078L40.271 39.1251L40.3798 39.1711L40.489 39.2161L40.5986 39.2599L40.7084 39.3026L40.8187 39.3442L40.9293 39.3847L41.0402 39.4241L41.1514 39.4623L41.263 39.4995L41.3748 39.5354L41.4869 39.5703L41.5993 39.604L41.7119 39.6366L41.8247 39.6681L41.9378 39.6984L42.0511 39.7277L42.1646 39.7557L42.2783 39.7826L42.3922 39.8084L42.5063 39.8331L42.6205 39.8566L42.7348 39.8789L42.8494 39.9001L42.9639 39.9202L43.0787 39.9392L43.1935 39.9569L43.3084 39.9736L43.4234 39.9891L43.5384 40.0035L43.6535 40.0167L43.7686 40.0288L43.8838 40.0397L43.999 40.0495L44.1142 40.0581L44.2294 40.0657L44.3445 40.072L44.4596 40.0773L44.5748 40.0814L44.6898 40.0844L44.8047 40.0862L44.9196 40.0869L45.0344 40.0865L45.1491 40.0849L45.2637 40.0823L45.3781 40.0785L45.4925 40.0736L45.6066 40.0675L45.7206 40.0604L45.8344 40.0521L45.9481 40.0427L46.0615 40.0322L46.1748 40.0206L46.2879 40.0079L46.4007 39.9941L46.5133 39.9792L46.6256 39.9633L46.7377 39.9462L46.8495 39.928L46.9609 39.9088L47.0722 39.8884L47.1831 39.867L47.2937 39.8446L47.4041 39.821L47.5139 39.7964L47.6235 39.7708L47.7327 39.744L47.8416 39.7163L47.9501 39.6875L48.0582 39.6576L48.1659 39.6267L48.2732 39.5948L48.38 39.5619L48.4864 39.5279L48.5925 39.4929L48.698 39.4569L48.8031 39.4199L48.9077 39.3819L49.0118 39.3429L49.1154 39.3029L49.2185 39.2619L49.3212 39.2199L49.4233 39.177L49.5248 39.1331L49.6259 39.0883L49.7263 39.0425L49.8263 38.9957L49.9257 38.948L50.0243 38.8995L50.1227 38.8498L50.2202 38.7994L50.3173 38.7479L50.4135 38.6957L50.5093 38.6425L50.6045 38.5884L50.6989 38.5334L50.7928 38.4775L50.886 38.4208L50.9784 38.3632L51.0704 38.3047L51.1614 38.2455L51.2519 38.1853L51.3418 38.1242L51.4308 38.0624L51.519 37.9999L51.6068 37.9363L51.6936 37.8722L51.7798 37.8071L51.8653 37.7412L51.9497 37.6747L52.0338 37.6072L52.117 37.539L52.1991 37.4702L52.2809 37.4003L52.3616 37.33L52.4415 37.259L52.5209 37.1869L52.5991 37.1145L52.6767 37.0412L52.7535 36.9672L52.8293 36.8926L52.9044 36.8172L52.9787 36.7412L53.0521 36.6645L53.1245 36.5872L53.1962 36.5092L53.2671 36.4306L53.3369 36.3515L53.4061 36.2715L53.4742 36.1911L53.5414 36.1101L53.6079 36.0283L53.6733 35.9463L53.7379 35.8634L53.8016 35.7801L53.8644 35.6961L53.9262 35.6117L53.987 35.5269L54.0471 35.4412L54.1061 35.3553L54.1642 35.2688L54.2215 35.1817L54.2775 35.0944L54.3329 35.0064L54.3872 34.9179L54.4406 34.8291L54.4929 34.7398L54.5445 34.6499L54.5948 34.56L54.6444 34.4692L54.6929 34.3783L54.7403 34.287L54.787 34.195L54.8324 34.1032L54.8771 34.0104L54.9205 33.9179L54.9633 33.8244L55.0047 33.7311L55.0454 33.637L55.085 33.543L55.1235 33.4486L55.1611 33.3538L55.1977 33.2587L55.2331 33.1636L55.2678 33.0679L55.3012 32.9721L55.3337 32.8761L55.3652 32.7798L55.3957 32.6832L55.4252 32.5865L55.4536 32.4897L55.481 32.3925L55.5073 32.2953L55.5327 32.1978L55.557 32.1002L55.5803 32.0026L55.6026 31.9045L55.6238 31.8065L55.6441 31.7084L55.6632 31.6103L55.6814 31.512L55.6985 31.4133L55.7146 31.315L55.7297 31.2164L55.7437 31.1177L55.7567 31.0192L55.7687 30.9205L55.7797 30.8215L55.7896 30.7232L55.7986 30.6241L55.8065 30.5254L55.8133 30.4269L55.8192 30.3281L55.824 30.2295L55.8278 30.131L55.8306 30.0322L55.8323 29.934L55.8331 29.8354L55.8328 29.7371L55.8316 29.6388L55.8293 29.5409L55.826 29.4428L55.8217 29.3449L55.8164 29.2474L55.8101 29.1496L55.8028 29.0521L55.7946 28.9551L55.7853 28.8578L55.775 28.7611L55.7637 28.6642L55.7515 28.5678L55.7383 28.4715L55.7241 28.3753L55.7089 28.2795L55.6928 28.184L55.6757 28.0887L55.6576 27.9937L55.6385 27.8986L55.6185 27.8042L55.5976 27.7101L55.5757 27.6161L55.5528 27.5223L55.5291 27.4293L55.5043 27.336L55.4787 27.2435L55.4521 27.1511L55.4246 27.0593L55.3962 26.9676L55.3668 26.8763L55.3366 26.7856L55.3055 26.6952L55.2733 26.6049L55.2405 26.5154L55.2066 26.4261L55.1719 26.3374L55.1363 26.2489L55.0998 26.1608L55.0625 26.0735L55.0242 25.9863L54.9852 25.8998L54.9453 25.8138L54.9045 25.728L54.8628 25.6427L54.8205 25.5582L54.7771 25.4739L54.7331 25.3904L54.6882 25.3074L54.6424 25.2245L54.596 25.1426L54.5486 25.061L54.5005 24.9801L54.4515 24.8995L54.402 24.8198L54.3514 24.7403L54.3003 24.6617L54.2483 24.5836L54.1956 24.5061L54.142 24.429L54.0878 24.3527L54.033 24.2771L53.9772 24.2018L53.9209 24.1274L53.8637 24.0535L53.8061 23.9804L53.7475 23.9077L53.6883 23.8358L53.6284 23.7645L53.5679 23.6938L53.5068 23.624L53.4448 23.5546L53.3824 23.4861L53.3192 23.4181L53.2556 23.3511L53.191 23.2844L53.1261 23.2187L53.0603 23.1534L52.9941 23.0891L52.9274 23.0255L52.86 22.9625L52.7919 22.9002L52.7233 22.8388L52.6542 22.7781L52.5843 22.7179L52.5144 22.6589L52.4435 22.6002L52.3722 22.5425L52.3004 22.4856L52.228 22.4292L52.1552 22.3738L52.0821 22.3193L52.0081 22.2653L51.9336 22.212L51.8591 22.1599L51.7836 22.1082L51.7082 22.0577L51.6321 22.0077L51.5555 21.9585L51.4784 21.9101L51.4012 21.8627L51.3232 21.8159L51.2451 21.7701L51.1663 21.7249L51.0876 21.6808L51.0082 21.6374L50.9284 21.5947L50.8483 21.5529L50.768 21.5121L50.6872 21.4719L50.606 21.4326L50.5247 21.3942L50.4432 21.3567L50.3608 21.3198L50.2788 21.284L50.1962 21.249L50.1132 21.2147L50.0301 21.1814L49.9469 21.149L49.8633 21.1174L49.7792 21.0865L49.6953 21.0567L49.6109 21.0276L49.5263 20.9994L49.4418 20.9721L49.3569 20.9457L49.272 20.9201L49.1864 20.8953L49.1011 20.8715L49.0156 20.8485L48.9299 20.8264L48.8441 20.8051L48.7579 20.7847L48.6719 20.7652L48.5859 20.7466L48.4995 20.7288L48.4129 20.7118L48.3268 20.6959L48.2401 20.6807L48.1536 20.6664L48.0667 20.6529L47.9803 20.6404L47.8932 20.6286L47.8067 20.6179L47.7199 20.6079L47.6331 20.5988L47.5464 20.5906L47.4595 20.5832L47.373 20.5767L47.286 20.5711L47.1994 20.5663L47.113 20.5624L47.026 20.5593L46.9397 20.5571L46.8533 20.5558L46.767 20.5553L46.708 20.5555L46.7527 24.3309L46.7794 24.331L46.829 24.3317L46.8787 24.3329L46.9285 24.3345L46.9783 24.3368L47.0282 24.3395L47.0781 24.3427L47.1281 24.3465L47.1781 24.3508L47.2282 24.3556L47.2783 24.3609L47.3284 24.3667L47.3786 24.3731L47.4287 24.38L47.4789 24.3874L47.5291 24.3954L47.5793 24.4039L47.6294 24.4129L47.6796 24.4225L47.7297 24.4325L47.7798 24.4432L47.8299 24.4543L47.88 24.466L47.9299 24.4782L47.9799 24.4909L48.0298 24.5042L48.0796 24.518L48.1294 24.5323L48.1791 24.5472L48.2287 24.5626L48.2782 24.5786L48.3277 24.5951L48.377 24.6121L48.4263 24.6296L48.4754 24.6477L48.5244 24.6663L48.5733 24.6854L48.6221 24.7051L48.6707 24.7253L48.7192 24.746L48.7676 24.7673L48.8158 24.7891L48.8639 24.8114L48.9118 24.8343L48.9595 24.8576L49.0071 24.8815L49.0544 24.906L49.1016 24.9309L49.1486 24.9564L49.1954 24.9824L49.242 25.0089L49.2884 25.0359L49.3345 25.0634L49.3805 25.0915L49.4262 25.1201L49.4717 25.1492L49.5169 25.1787L49.5619 25.2088L49.6067 25.2395L49.6512 25.2706L49.6954 25.3022L49.7394 25.3343L49.7831 25.3669L49.8265 25.4L49.8696 25.4336L49.9125 25.4677L49.955 25.5023L49.9972 25.5373L50.0392 25.5729L50.0808 25.6089L50.1221 25.6454L50.1631 25.6824L50.2037 25.7199L50.244 25.7578L50.2839 25.7962L50.3236 25.8351L50.3628 25.8744L50.4017 25.9142L50.4403 25.9544L50.4784 25.9951L50.5162 26.0363L50.5536 26.0779L50.5907 26.1199L50.6273 26.1624L50.6635 26.2053L50.6994 26.2486L50.7348 26.2924L50.7698 26.3366L50.8044 26.3812L50.8386 26.4263L50.8724 26.4717L50.9057 26.5176L50.9385 26.5638L50.971 26.6105L51.003 26.6576L51.0345 26.7051L51.0656 26.7529L51.0963 26.8012L51.1264 26.8498L51.1561 26.8988L51.1853 26.9482L51.214 26.9979L51.2423 27.048L51.27 27.0985L51.2973 27.1493L51.3241 27.2005L51.3503 27.252L51.3761 27.3038L51.4013 27.356L51.426 27.4086L51.4502 27.4614L51.4739 27.5146L51.4971 27.5681L51.5197 27.6219L51.5418 27.676L51.5633 27.7304L51.5843 27.7851L51.6048 27.8401L51.6247 27.8954L51.644 27.951L51.6628 28.0068L51.681 28.0629L51.6986 28.1193L51.7157 28.1759L51.7322 28.2328L51.7481 28.29L51.7635 28.3473L51.7783 28.4049L51.7924 28.4628L51.806 28.5209L51.819 28.5791L51.8314 28.6377L51.8432 28.6964L51.8543 28.7552L51.8649 28.8144L51.8749 28.8737L51.8843 28.9331L51.893 28.9928L51.9011 29.0526L51.9086 29.1126L51.9155 29.1728L51.9218 29.2331L51.9274 29.2935L51.9324 29.3541L51.9368 29.4149L51.9405 29.4757L51.9436 29.5367L51.946 29.5978L51.9479 29.659L51.949 29.7203L51.9496 29.7817L51.9494 29.8431L51.9487 29.9047L51.9473 29.9664L51.9452 30.0281L51.9425 30.0899L51.9391 30.1517L51.9351 30.2136L51.9304 30.2755L51.925 30.3375L51.919 30.3995L51.9124 30.4615L51.905 30.5235L51.897 30.5856L51.8884 30.6477L51.8791 30.7097L51.8691 30.7717L51.8584 30.8337L51.8471 30.8957L51.8351 30.9577L51.8225 31.0196L51.8091 31.0815L51.7951 31.1433L51.7805 31.2051L51.7651 31.2668L51.7491 31.3285L51.7325 31.39L51.7151 31.4515L51.6971 31.5128L51.6784 31.5741L51.6591 31.6353L51.6391 31.6963L51.6184 31.7573L51.5971 31.8181L51.575 31.8787L51.5523 31.9393L51.529 31.9996L51.505 32.0599L51.4803 32.1199L51.455 32.1798L51.429 32.2395L51.4023 32.2991L51.375 32.3584L51.347 32.4175L51.3183 32.4765L51.2891 32.5352L51.2591 32.5937L51.2285 32.652L51.1972 32.71L51.1653 32.7678L51.1328 32.8254L51.0996 32.8827L51.0657 32.9398L51.0313 32.9965L50.9961 33.0531L50.9604 33.1093L50.924 33.1652L50.8869 33.2209L50.8493 33.2762L50.811 33.3313L50.7721 33.386L50.7325 33.4404L50.6924 33.4945L50.6516 33.5482L50.6102 33.6016L50.5682 33.6547L50.5256 33.7074L50.4824 33.7597L50.4386 33.8117L50.3942 33.8633L50.3491 33.9145L50.3035 33.9653L50.2573 34.0158L50.2105 34.0658L50.1632 34.1154L50.1152 34.1647L50.0667 34.2135L50.0176 34.2618L49.968 34.3098L49.9177 34.3573L49.8669 34.4043L49.8156 34.4509L49.7637 34.4971L49.7113 34.5428L49.6583 34.588L49.6048 34.6327L49.5507 34.677L49.4961 34.7208L49.441 34.764L49.3854 34.8068L49.3293 34.8491L49.2726 34.8909L49.2155 34.9321L49.1578 34.9728L49.0997 35.0131L49.041 35.0527L48.9819 35.0919L48.9223 35.1304L48.8622 35.1685L48.8016 35.206L48.7406 35.2429L48.6791 35.2792L48.6172 35.315L48.5548 35.3502L48.4919 35.3848L48.4287 35.4189L48.365 35.4523L48.3009 35.4852L48.2363 35.5174L48.1714 35.5491L48.106 35.5801L48.0402 35.6105L47.9741 35.6403L47.9075 35.6694L47.8406 35.698L47.7733 35.7259L47.7056 35.7531L47.6375 35.7797L47.5691 35.8057L47.5003 35.831L47.4312 35.8557L47.3618 35.8797L47.292 35.903L47.2219 35.9257L47.1515 35.9476L47.0808 35.9689L47.0097 35.9896L46.9384 36.0095L46.8668 36.0288L46.7949 36.0473L46.7227 36.0652L46.6502 36.0823L46.5775 36.0988L46.5045 36.1145L46.4313 36.1296L46.3578 36.1439L46.2841 36.1575L46.2102 36.1704L46.136 36.1826L46.0617 36.194L45.9871 36.2047L45.9124 36.2147L45.8374 36.224L45.7623 36.2325L45.687 36.2402L45.6115 36.2473L45.5359 36.2535L45.4601 36.2591L45.3841 36.2638L45.3081 36.2679L45.2319 36.2712L45.1556 36.2737L45.0791 36.2754L45.0026 36.2764L44.926 36.2767L44.8493 36.2762L44.7725 36.2749L44.6956 36.2728L44.6187 36.27L44.5417 36.2664L44.4646 36.262L44.3875 36.2569L44.3104 36.251L44.2333 36.2443L44.1561 36.2368L44.079 36.2286L44.0018 36.2195L43.9247 36.2097L43.8475 36.1991L43.7704 36.1878L43.6933 36.1756L43.6163 36.1627L43.5393 36.149L43.4624 36.1345L43.3855 36.1193L43.3087 36.1032L43.232 36.0864L43.1554 36.0687L43.0789 36.0503L43.0024 36.0312L42.9261 36.0112L42.85 35.9904L42.7739 35.9689L42.6981 35.9466L42.6223 35.9235L42.5467 35.8996L42.4713 35.875L42.396 35.8496L42.321 35.8234L42.2461 35.7964L42.1714 35.7686L42.097 35.7401L42.0227 35.7108L41.9487 35.6807L41.8749 35.6499L41.8014 35.6183L41.7281 35.5859L41.655 35.5528L41.5823 35.5189L41.5097 35.4842L41.4375 35.4488L41.3656 35.4126L41.294 35.3757L41.2227 35.338L41.1517 35.2996L41.081 35.2604L41.0107 35.2205L40.9406 35.1798L40.871 35.1384L40.8017 35.0963L40.7328 35.0534L40.6642 35.0098L40.596 34.9655L40.5282 34.9204L40.4608 34.8746L40.3939 34.8281L40.3273 34.7809L40.2611 34.733L40.1954 34.6843L40.1301 34.635L40.0653 34.585L40.0009 34.5342L39.937 34.4828L39.8735 34.4307L39.8105 34.3779L39.748 34.3244L39.686 34.2702L39.6245 34.2154L39.5635 34.1599L39.503 34.1037L39.443 34.0469L39.3836 33.9894L39.3246 33.9313L39.2663 33.8725L39.2085 33.8131L39.1512 33.753L39.0945 33.6924L39.0384 33.631L38.9829 33.5691L38.9279 33.5066L38.8736 33.4434L38.8198 33.3797L38.7666 33.3153L38.7141 33.2503L38.6622 33.1848L38.6109 33.1187L38.5602 33.052L38.5102 32.9847L38.4609 32.9169L38.4122 32.8485L38.3641 32.7795L38.3167 32.71L38.27 32.64L38.224 32.5694L38.1787 32.4983L38.134 32.4267L38.0901 32.3546L38.0468 32.2819L38.0043 32.2088L37.9625 32.1351L37.9214 32.061L37.881 31.9864L37.8414 31.9113L37.8025 31.8357L37.7643 31.7597L37.7269 31.6833L37.6903 31.6063L37.6544 31.529L37.6193 31.4512L37.585 31.373L37.5514 31.2943L37.5186 31.2153L37.4866 31.1358L37.4554 31.056L37.425 30.9757L37.3955 30.8951L37.3667 30.8141L37.3387 30.7328L37.3115 30.6511L37.2852 30.569L37.2597 30.4866L37.235 30.4039L37.2111 30.3208L37.1881 30.2374L37.166 30.1537L37.1446 30.0697L37.1242 29.9854L37.1046 29.9009L37.0858 29.816L37.0679 29.7309L37.0509 29.6455L37.0347 29.5599L37.0194 29.474L37.005 29.3879L36.9915 29.3016L36.9788 29.215L36.967 29.1283L36.9562 29.0413L36.9462 28.9542L36.9371 28.8668L36.9289 28.7793L36.9216 28.6916L36.9152 28.6038L36.9097 28.5158L36.9051 28.4277L36.9014 28.3395L36.8986 28.2511L36.8968 28.1626L36.8959 28.0741L36.8958 27.9854L36.8967 27.8966L36.8986 27.8078L36.9013 27.7189L36.905 27.6299L36.9096 27.5409L36.9151 27.4519L36.9215 27.3628L36.9289 27.2737L36.9372 27.1846L36.9464 27.0955L36.9566 27.0064L36.9677 26.9173L36.9797 26.8283L36.9927 26.7393L37.0066 26.6503L37.0215 26.5614L37.0372 26.4725L37.0539 26.3837L37.0716 26.295L37.0902 26.2064L37.1097 26.1179L37.1301 26.0295L37.1515 25.9413L37.1738 25.8531L37.1971 25.7651L37.2213 25.6773L37.2464 25.5896L37.2724 25.502L37.2994 25.4147L37.3273 25.3275L37.3561 25.2405L37.3859 25.1538L37.4166 25.0672L37.4482 24.9809L37.4807 24.8948L37.5142 24.809L37.5486 24.7234L37.5839 24.638L37.6201 24.553L37.6572 24.4682L37.6953 24.3837L37.7342 24.2995L37.7741 24.2156L37.8148 24.1321L37.8565 24.0488L37.899 23.9659L37.9425 23.8834L37.9868 23.8012L38.0321 23.7194L38.0782 23.6379L38.1252 23.5568L38.1731 23.4762L38.2219 23.3959L38.2715 23.316L38.3221 23.2366L38.3735 23.1575L38.4257 23.0789L38.4788 23.0008L38.5328 22.9231L38.5876 22.8459L38.6433 22.7692L38.6998 22.6929L38.7571 22.6171L38.8153 22.5419L38.8743 22.4671L38.9342 22.3929L38.9949 22.3191L39.0563 22.246L39.1186 22.1733L39.1817 22.1012L39.2456 22.0297L39.3103 21.9587L39.3758 21.8884L39.4421 21.8186L39.5092 21.7494L39.577 21.6808L39.6456 21.6128L39.715 21.5454L39.7851 21.4787L39.856 21.4126L39.9276 21.3471L39.9999 21.2823L40.073 21.2181L40.1469 21.1547L40.2214 21.0918L40.2967 21.0297L40.3726 20.9683L40.4493 20.9075L40.5266 20.8475L40.6047 20.7882L40.6834 20.7296L40.7628 20.6717L40.8429 20.6146L40.9236 20.5582L41.005 20.5025L41.0871 20.4476L41.1697 20.3935L41.253 20.3402L41.337 20.2876L41.4215 20.2358L41.5067 20.1848L41.5924 20.1346L41.6788 20.0852L41.7657 20.0366L41.8532 19.9888L41.9413 19.9419L42.0299 19.8958L42.1191 19.8505L42.2088 19.8061L42.2991 19.7625L42.3899 19.7198L42.4812 19.6779L42.573 19.6369L42.6653 19.5968L42.7582 19.5575L42.8515 19.5191L42.9452 19.4817L43.0395 19.4451L43.1342 19.4094L43.2293 19.3746L43.3249 19.3408L43.421 19.3078L43.5174 19.2758L43.6143 19.2447L43.7115 19.2145L43.8092 19.1853L43.9072 19.157L44.0056 19.1297L44.1044 19.1033L44.2035 19.0778L44.303 19.0533L44.4028 19.0298L44.503 19.0073L44.6034 18.9857L44.7042 18.9651L44.8052 18.9455L44.8559 18.9361ZM46.0978 26.1964L44.9452 26.4718L44.8775 20.7623L44.8232 20.7745L44.7414 20.7938L44.6597 20.8139L44.5786 20.8347L44.4976 20.8563L44.4171 20.8787L44.3366 20.902L44.2569 20.9258L44.177 20.9506L44.0981 20.9759L44.019 21.0022L43.9404 21.0292L43.8622 21.0569L43.7843 21.0853L43.7071 21.1144L43.63 21.1444L43.5533 21.175L43.4771 21.2063L43.401 21.2385L43.3259 21.2711L43.2508 21.3047L43.1764 21.3388L43.1021 21.3738L43.0285 21.4093L42.9551 21.4456L42.8825 21.4825L42.8102 21.5201L42.7384 21.5584L42.6671 21.5973L42.5962 21.6369L42.5258 21.6772L42.4562 21.718L42.3865 21.7597L42.3177 21.8018L42.2495 21.8446L42.1817 21.888L42.1143 21.9321L42.0476 21.9768L41.9814 22.0221L41.9157 22.0679L41.8507 22.1143L41.786 22.1614L41.722 22.2091L41.6586 22.2573L41.5957 22.3061L41.5335 22.3553L41.4719 22.4052L41.4107 22.4557L41.3501 22.5068L41.2903 22.5582L41.231 22.6103L41.1723 22.6628L41.1142 22.7159L41.0567 22.7696L40.9999 22.8237L40.9437 22.8782L40.888 22.9334L40.8331 22.9889L40.7788 23.045L40.7252 23.1014L40.672 23.1586L40.6197 23.2159L40.568 23.2738L40.5169 23.3322L40.4666 23.3908L40.4168 23.4501L40.3679 23.5095L40.3194 23.5697L40.2718 23.63L40.2247 23.6909L40.1784 23.7522L40.1328 23.8137L40.0878 23.8756L40.0436 23.9379L40 24.0007L39.9571 24.0637L39.915 24.1272L39.8736 24.1908L39.8329 24.2548L39.7928 24.3193L39.7536 24.3839L39.7149 24.4491L39.6771 24.5142L39.6399 24.5799L39.6034 24.6458L39.5678 24.7119L39.5328 24.7783L39.4986 24.845L39.465 24.9121L39.4323 24.9791L39.4002 25.0467L39.3689 25.1143L39.3384 25.1822L39.3085 25.2503L39.2794 25.3187L39.2511 25.3871L39.2235 25.4559L39.1967 25.5248L39.1705 25.5939L39.1452 25.663L39.1206 25.7325L39.0967 25.8021L39.0736 25.8718L39.0512 25.9416L39.0296 26.0117L39.0087 26.0818L38.9887 26.1519L38.9693 26.2223L38.9506 26.2928L38.9328 26.3633L38.9157 26.4339L38.8993 26.5046L38.8837 26.5754L38.8689 26.6463L38.8548 26.7171L38.8414 26.788L38.8288 26.8591L38.817 26.93L38.8059 27.001L38.7955 27.0722L38.7859 27.1431L38.7771 27.2143L38.769 27.2852L38.7616 27.3563L38.755 27.4275L38.7491 27.4984L38.744 27.5694L38.7396 27.6404L38.7359 27.7112L38.733 27.782L38.7308 27.8527L38.7294 27.9235L38.7286 27.9941L38.7287 28.0646L38.7294 28.135L38.7309 28.2054L38.7331 28.2756L38.736 28.3457L38.7396 28.4157L38.744 28.4855L38.7491 28.5552L38.7549 28.6248L38.7614 28.6942L38.7686 28.7636L38.7765 28.8325L38.7851 28.9016L38.7944 28.9702L38.8045 29.0389L38.8152 29.1072L38.8266 29.1754L38.8387 29.2435L38.8515 29.3112L38.865 29.3788L38.8791 29.446L38.894 29.5132L38.9095 29.58L38.9257 29.6467L38.9425 29.7129L38.9601 29.7792L38.9782 29.8449L38.997 29.9106L39.0165 29.9758L39.0366 30.0409L39.0574 30.1056L39.0788 30.1699L39.1009 30.2342L39.1236 30.298L39.1469 30.3614L39.1708 30.4247L39.1954 30.4876L39.2206 30.5501L39.2464 30.6123L39.2727 30.6741L39.2998 30.7357L39.3274 30.7969L39.3556 30.8577L39.3844 30.9181L39.4137 30.9781L39.4438 31.038L39.4742 31.0972L39.5053 31.1561L39.537 31.2147L39.5693 31.2728L39.6021 31.3306L39.6354 31.388L39.6693 31.4448L39.7038 31.5014L39.7387 31.5575L39.7742 31.6131L39.8103 31.6684L39.8468 31.7232L39.8839 31.7777L39.9214 31.8314L39.9595 31.885L39.9981 31.938L40.0371 31.9905L40.0768 32.0427L40.1168 32.0943L40.1573 32.1454L40.1983 32.1961L40.2398 32.2464L40.2816 32.296L40.3241 32.3453L40.3669 32.3941L40.4101 32.4423L40.454 32.4901L40.498 32.5372L40.5426 32.5841L40.5876 32.6303L40.6329 32.676L40.6788 32.7212L40.725 32.7659L40.7716 32.8101L40.8186 32.8537L40.866 32.8968L40.9138 32.9394L40.9619 32.9814L41.0104 33.0229L41.0592 33.0639L41.1084 33.1043L41.158 33.1442L41.208 33.1835L41.2581 33.2222L41.3087 33.2604L41.3596 33.2981L41.4108 33.3352L41.4623 33.3717L41.5141 33.4077L41.5662 33.4431L41.6186 33.4779L41.6712 33.5121L41.7241 33.5458L41.7775 33.579L41.8309 33.6114L41.8846 33.6434L41.9387 33.6748L41.9928 33.7055L42.0472 33.7357L42.1021 33.7654L42.157 33.7944L42.2121 33.8228L42.2674 33.8506L42.3231 33.8779L42.3787 33.9045L42.4348 33.9306L42.4909 33.9561L42.5471 33.9809L42.6037 34.0052L42.6604 34.0289L42.7171 34.052L42.7741 34.0745L42.8312 34.0963L42.8886 34.1176L42.9458 34.1383L43.0035 34.1584L43.061 34.1778L43.1187 34.1967L43.1766 34.215L43.2346 34.2327L43.2926 34.2497L43.3507 34.2662L43.409 34.282L43.4673 34.2973L43.5256 34.3119L43.584 34.326L43.6424 34.3394L43.7009 34.3522L43.7595 34.3645L43.8181 34.3761L43.8767 34.3872L43.9353 34.3976L43.994 34.4075L44.0527 34.4167L44.1114 34.4254L44.1699 34.4334L44.2286 34.4408L44.2872 34.4477L44.3459 34.454L44.4045 34.4596L44.4631 34.4647L44.5216 34.4692L44.58 34.4731L44.6385 34.4764L44.6968 34.4791L44.755 34.4813L44.8134 34.4828L44.8714 34.4838L44.9294 34.4842L44.9874 34.484L45.0452 34.4833L45.1031 34.4819L45.1608 34.48L45.2182 34.4776L45.2756 34.4745L45.3331 34.4709L45.3901 34.4667L45.4472 34.462L45.504 34.4567L45.5608 34.4509L45.6174 34.4444L45.6737 34.4375L45.7301 34.43L45.7861 34.4219L45.8419 34.4133L45.8978 34.4042L45.9533 34.3945L46.0086 34.3843L46.0638 34.3735L46.1188 34.3622L46.1734 34.3504L46.2278 34.3381L46.2822 34.3252L46.3363 34.3118L46.3901 34.298L46.4437 34.2836L46.497 34.2687L46.5503 34.2532L46.6031 34.2373L46.6555 34.2209L46.7081 34.2039L46.7601 34.1865L46.8119 34.1687L46.8634 34.1503L46.9146 34.1314L46.9657 34.112L47.0164 34.0922L47.0667 34.0719L47.1168 34.0512L47.1666 34.0299L47.2162 34.0082L47.2652 33.9861L47.3142 33.9635L47.3627 33.9405L47.4108 33.917L47.4588 33.8931L47.5062 33.8688L47.5535 33.844L47.6004 33.8187L47.6469 33.7931L47.693 33.7671L47.7389 33.7406L47.7844 33.7137L47.8294 33.6864L47.8741 33.6587L47.9185 33.6306L47.9625 33.6022L48.0062 33.5733L48.0494 33.5441L48.0923 33.5144L48.1348 33.4844L48.1768 33.4541L48.2185 33.4233L48.2598 33.3922L48.3007 33.3607L48.3412 33.3289L48.3814 33.2967L48.421 33.2643L48.4603 33.2315L48.4991 33.1983L48.5375 33.1648L48.5756 33.131L48.6132 33.0968L48.6504 33.0624L48.687 33.0277L48.7234 32.9926L48.7593 32.9572L48.7948 32.9216L48.8298 32.8857L48.8643 32.8494L48.8984 32.813L48.9322 32.7761L48.9653 32.7392L48.9982 32.7018L49.0305 32.6642L49.0623 32.6265L49.0939 32.5883L49.1247 32.5501L49.1553 32.5115L49.1854 32.4728L49.2149 32.4338L49.2441 32.3945L49.2727 32.3552L49.3009 32.3154L49.3287 32.2755L49.3559 32.2356L49.3827 32.1952L49.4091 32.1548L49.4348 32.1142L49.4602 32.0734L49.4851 32.0324L49.5095 31.9912L49.5335 31.9499L49.5569 31.9084L49.5799 31.8668L49.6024 31.8249L49.6244 31.7831L49.6459 31.741L49.667 31.6988L49.6876 31.6565L49.7077 31.6139L49.7273 31.5714L49.7464 31.5287L49.765 31.486L49.7832 31.443L49.8008 31.4001L49.8181 31.3568L49.8347 31.3139L49.851 31.2703L49.8666 31.2274L49.8819 31.1838L49.8967 31.1402L49.9109 31.0968L49.9247 31.0532L49.938 31.0097L49.9509 30.9657L49.9631 30.9223L49.9751 30.8782L49.9864 30.8348L49.9973 30.7908L50.0077 30.7468L50.0176 30.7031L50.027 30.6595L50.036 30.6153L50.0445 30.5716L50.0525 30.5275L50.06 30.4839L50.0671 30.4401L50.0737 30.3962L50.0798 30.3523L50.0854 30.3085L50.0906 30.2649L50.0953 30.2214L50.0995 30.1775L50.1033 30.134L50.1066 30.0904L50.1094 30.0469L50.1118 30.0035L50.1137 29.9602L50.1151 29.9171L50.1161 29.8737L50.1167 29.8304L50.1168 29.7875L50.1164 29.7446L50.1156 29.7018L50.1143 29.6591L50.1126 29.6162L50.1104 29.5741L50.1078 29.5311L50.1048 29.4892L50.1013 29.4471L50.0974 29.4047L50.093 29.3628L50.0883 29.3213L50.083 29.2792L50.0774 29.238L50.0713 29.1965L50.0649 29.1556L50.0579 29.1143L50.0506 29.0733L50.0429 29.0327L50.0348 28.9922L50.0262 28.9516L50.0172 28.9115L50.0079 28.8714L49.9981 28.8316L49.988 28.7921L49.9773 28.7523L49.9665 28.7133L49.9551 28.6739L49.9434 28.6352L49.9313 28.5965L49.9188 28.5581L49.9059 28.5198L49.8926 28.4816L49.8791 28.444L49.8651 28.4065L49.8507 28.3689L49.836 28.3319L49.8209 28.2947L49.8056 28.2584L49.7897 28.2217L49.7737 28.1856L49.7572 28.1498L49.7404 28.114L49.7233 28.0786L49.7058 28.0434L49.688 28.0084L49.6699 27.9738L49.6514 27.9394L49.6327 27.9053L49.6136 27.8714L49.5941 27.8378L49.5745 27.8045L49.5545 27.7715L49.5341 27.7386L49.5135 27.7063L49.4926 27.6741L49.4714 27.6422L49.4499 27.6105L49.4282 27.5793L49.4061 27.5482L49.3838 27.5175L49.3612 27.4871L49.3383 27.457L49.3153 27.4272L49.2918 27.3976L49.2682 27.3685L49.2443 27.3396L49.2202 27.311L49.1958 27.2827L49.1713 27.2548L49.1464 27.2272L49.1213 27.1999L49.096 27.1728L49.0705 27.1462L49.0447 27.1199L49.0187 27.0938L48.9926 27.0682L48.9662 27.0429L48.9397 27.0179L48.9127 26.9931L48.8859 26.9688L48.8587 26.9447L48.8314 26.9211L48.8038 26.8977L48.7761 26.8748L48.7482 26.8521L48.7202 26.8298L48.692 26.8078L48.6636 26.7861L48.6351 26.7649L48.6064 26.7439L48.5775 26.7233L48.5486 26.7031L48.5195 26.6831L48.4903 26.6636L48.4609 26.6444L48.4313 26.6255L48.4018 26.607L48.3719 26.5888L48.3421 26.571L48.3122 26.5536L48.2821 26.5365L48.2518 26.5197L48.2216 26.5033L48.1913 26.4872L48.1608 26.4715L48.1304 26.4562L48.0996 26.4411L48.069 26.4265L48.0382 26.4123L48.0074 26.3983L47.9765 26.3847L47.9454 26.3714L47.9146 26.3586L47.8834 26.3461L47.8522 26.3339L47.8211 26.3221L47.7899 26.3106L47.7587 26.2995L47.7274 26.2887L47.6961 26.2782L47.6649 26.2682L47.6335 26.2584L47.6021 26.249L47.5709 26.24L47.5393 26.2313L47.5081 26.223L47.4767 26.215L47.4453 26.2073L47.4139 26.2L47.3826 26.193L47.3512 26.1864L47.3199 26.1801L47.2887 26.1741L47.2575 26.1685L47.2261 26.1632L47.1951 26.1583L47.1637 26.1537L47.1328 26.1494L47.1016 26.1454L47.0706 26.1418L47.0398 26.1385L47.0088 26.1356L46.978 26.1329L46.9472 26.1306L46.9165 26.1286L46.8858 26.1269L46.8552 26.1256L46.8249 26.1246L46.7944 26.1238L46.7641 26.1234L46.7338 26.1233L46.7037 26.1236L46.6736 26.1241L46.6437 26.1249L46.6138 26.1261L46.5842 26.1275L46.5544 26.1293L46.525 26.1313L46.4956 26.1336L46.4663 26.1363L46.4372 26.1392L46.408 26.1424L46.3792 26.1459L46.3504 26.1497L46.3218 26.1538L46.2932 26.1582L46.2649 26.1628L46.2366 26.1677L46.2087 26.1729L46.1806 26.1784L46.1529 26.1841L46.1252 26.1901L46.0978 26.1964Z" fill="#707070"/>
<path d="M66.2166 36.0561V18.9441H63.4106V36.0561H66.2166Z" fill="#707070"/>
<path d="M66.2166 27.5C66.2166 30.996 68.5626 33.48 72.1276 33.48C75.6926 33.48 78.0386 30.996 78.0386 27.5C78.0386 24.004 75.6926 21.52 72.1276 21.52C68.5626 21.52 66.2166 24.004 66.2166 27.5ZM69.0456 27.5C69.0456 25.453 70.2646 24.027 72.1276 24.027C73.9906 24.027 75.2096 25.453 75.2096 27.5C75.2096 29.524 73.9906 30.973 72.1276 30.973C70.2646 30.973 69.0456 29.524 69.0456 27.5Z" fill="#707070"/>
<path d="M78.0387 24.6366C78.0387 27.9486 80.1776 30.3406 83.3746 30.3406C85.0306 30.3406 86.4566 29.6736 87.1696 28.5696V30.5016C87.1696 32.3646 85.9966 33.6066 84.0416 33.6066C82.2936 33.6066 81.0976 32.7556 80.9366 31.2606H78.1077C78.4757 34.2276 80.7526 36.1596 83.8806 36.1596C87.5606 36.1596 89.9066 33.7446 89.9066 29.9956V19.2086H87.4226L87.2617 20.7496C86.5717 19.5536 85.1456 18.8406 83.4666 18.8406C80.2236 18.8406 78.0387 21.3016 78.0387 24.6366ZM80.8906 24.5676C80.8906 22.6816 82.0867 21.3016 83.8577 21.3016C85.7897 21.3016 87.0776 22.7046 87.0776 24.5676C87.0776 26.4536 85.7897 27.9026 83.8577 27.9026C82.1097 27.9026 80.8906 26.4766 80.8906 24.5676Z" fill="#707070"/>
<path d="M89.9066 27.5C89.9066 30.996 92.2526 33.48 95.8176 33.48C99.3826 33.48 101.729 30.996 101.729 27.5C101.729 24.004 99.3826 21.52 95.8176 21.52C92.2526 21.52 89.9066 24.004 89.9066 27.5ZM92.7356 27.5C92.7356 25.453 93.9546 24.027 95.8176 24.027C97.6806 24.027 98.8996 25.453 98.8996 27.5C98.8996 29.524 97.6806 30.973 95.8176 30.973C93.9546 30.973 92.7356 29.524 92.7356 27.5Z" fill="#707070"/>
<path d="M103.385 22.325C104.305 22.325 105.064 21.589 105.064 20.646C105.064 19.726 104.305 18.99 103.385 18.99C102.442 18.99 101.729 19.726 101.729 20.646C101.729 21.589 102.442 22.325 103.385 22.325ZM101.982 36.01H104.788V24.648H101.982V36.01Z" fill="#707070"/>
<path d="M105.064 35.9869H107.801V29.1559C108.514 30.3289 110.055 31.0189 111.757 31.0189C115.115 31.0189 117.116 28.4429 117.07 24.9009C117.001 21.3359 114.954 19.0129 111.734 19.0129C110.009 19.0129 108.445 19.7719 107.755 21.0829L107.594 19.3579H105.064V35.9869ZM107.916 25.0389C107.916 22.9919 109.158 21.5659 111.113 21.5659C113.068 21.5659 114.241 23.0149 114.241 25.0389C114.241 27.0629 113.068 28.4889 111.113 28.4889C109.158 28.4889 107.916 27.0859 107.916 25.0389Z" fill="#707070"/>
<path d="M117.071 29.8001C117.163 32.0541 118.911 33.5031 121.625 33.5031C124.293 33.5031 126.11 32.0771 126.11 29.8691C126.11 28.2361 125.098 27.1321 123.235 26.6721L121.234 26.1891C120.383 25.9591 119.808 25.6601 119.808 24.9241C119.808 24.1421 120.429 23.5901 121.441 23.5901C122.499 23.5901 123.189 24.1881 123.189 25.1771H125.742C125.65 22.9231 123.971 21.4971 121.51 21.4971C119.072 21.4971 117.255 22.9231 117.255 25.0851C117.255 26.5571 118.106 27.7761 120.291 28.3511L122.269 28.8571C123.005 29.0641 123.465 29.4091 123.465 30.0531C123.465 30.9501 122.614 31.3641 121.579 31.3641C120.337 31.3641 119.624 30.7891 119.624 29.8001H117.071Z" fill="#707070"/>
<path d="M130.273 33.3304C131.814 33.3304 133.286 32.6174 133.953 31.5594L134.137 33.0314H136.759V21.6694H133.953V27.6264C133.953 29.6734 133.171 30.8234 131.331 30.8234C129.905 30.8234 128.916 30.1334 128.916 27.7874V21.6694H126.11V28.7764C126.11 31.4904 127.582 33.3304 130.273 33.3304Z" fill="#707070"/>
<path d="M137.551 28.2756C137.969 28.2756 138.332 27.9236 138.332 27.5056C138.332 27.0766 137.969 26.7246 137.551 26.7246C137.122 26.7246 136.759 27.0766 136.759 27.5056C136.759 27.9236 137.122 28.2756 137.551 28.2756Z" fill="#8E98A1"/>
<path d="M138.332 27.5165C138.332 29.1995 139.366 30.3325 140.873 30.3325C142.171 30.3325 143.161 29.5515 143.37 28.3855H142.38C142.193 29.0345 141.621 29.4195 140.939 29.4195C139.971 29.4195 139.355 28.6715 139.355 27.5055C139.355 26.3175 140.004 25.5915 140.961 25.5915C141.621 25.5915 142.193 25.9435 142.369 26.6365H143.359C143.183 25.4595 142.259 24.6675 140.972 24.6675C139.41 24.6675 138.332 25.8225 138.332 27.5165Z" fill="#8E98A1"/>
<path d="M143.37 27.5001C143.37 29.1171 144.47 30.3271 146.12 30.3271C147.77 30.3271 148.87 29.1171 148.87 27.5001C148.87 25.8831 147.77 24.6731 146.12 24.6731C144.47 24.6731 143.37 25.8831 143.37 27.5001ZM144.415 27.5001C144.415 26.4001 145.086 25.5971 146.12 25.5971C147.154 25.5971 147.825 26.4001 147.825 27.5001C147.825 28.6001 147.154 29.4031 146.12 29.4031C145.086 29.4031 144.415 28.6001 144.415 27.5001Z" fill="#8E98A1"/>
<path d="M151.676 33.3535V26.8215C151.676 24.9815 152.757 24.1075 154.091 24.1075C155.425 24.1075 156.299 24.9585 156.299 26.5685V33.3535H159.036V26.8445C159.036 24.9815 160.094 24.1075 161.428 24.1075C162.785 24.1075 163.659 24.9585 163.659 26.5685V33.3535H166.373V25.9245C166.373 23.3025 164.924 21.6465 162.164 21.6465C160.439 21.6465 159.082 22.4745 158.53 23.8085C157.909 22.4745 156.667 21.6465 154.781 21.6465C153.447 21.6465 152.251 22.2675 151.584 23.2795L151.446 21.9915H148.87V33.3535H151.676Z" fill="#707070"/>
<path d="M167.407 30.2664V27.0324C167.407 26.1854 167.935 25.6354 168.705 25.6354C169.442 25.6354 169.904 26.1084 169.904 26.9554V30.2664H170.916V27.0434C170.916 26.1854 171.433 25.6354 172.214 25.6354C172.94 25.6354 173.402 26.1084 173.402 26.9554V30.2664H174.403V26.7354C174.403 25.4924 173.677 24.7334 172.445 24.7334C171.609 24.7334 170.96 25.1404 170.696 25.8004C170.421 25.1404 169.816 24.7334 168.936 24.7334C168.265 24.7334 167.671 25.0414 167.374 25.5694L167.297 24.8874H166.373V30.2664H167.407Z" fill="#8E98A1"/>
</svg>
