<svg width="180" height="55" viewBox="0 0 180 55" fill="none" xmlns="http://www.w3.org/2000/svg">
<path d="M34.2923 31.1462V38.5828C34.2923 38.8679 34.179 39.1413 33.9774 39.3428C33.776 39.5444 33.5026 39.6576 33.2174 39.6576C32.9324 39.6576 32.659 39.5444 32.4574 39.3428C32.2558 39.1413 32.1426 38.8679 32.1426 38.5828V31.1565C32.4419 31.375 32.8007 31.497 33.1712 31.5062C33.575 31.5177 33.9707 31.3907 34.2923 31.1462ZM43.4466 28.9965C43.1738 28.9965 42.9121 29.1049 42.7193 29.2977C42.5264 29.4906 42.418 29.7523 42.418 30.025V31.321C42.418 31.6062 42.5313 31.8796 42.7329 32.0811C42.9344 32.2827 43.2077 32.3959 43.4929 32.3959C43.778 32.3959 44.0514 32.2827 44.2529 32.0811C44.4545 31.8796 44.5677 31.6062 44.5677 31.321V30.0765C44.5757 29.929 44.5519 29.7815 44.4978 29.6441C44.4437 29.5066 44.3607 29.3824 44.2542 29.2799C44.1479 29.1775 44.0206 29.0991 43.8814 29.0502C43.742 29.0013 43.5937 28.983 43.4466 28.9965ZM29.8077 33.9645C29.4376 33.9534 29.0793 33.8316 28.7792 33.6148V41.0719C28.7792 41.3584 28.8929 41.6331 29.0955 41.8356C29.298 42.0381 29.5727 42.1519 29.8592 42.1519C30.1456 42.1519 30.4203 42.0381 30.6228 41.8356C30.8254 41.6331 30.9392 41.3584 30.9392 41.0719V33.6662C30.6033 33.8833 30.207 33.9878 29.8077 33.9645ZM40.0934 26.7645C39.9541 26.7575 39.8148 26.779 39.684 26.8275C39.5532 26.8761 39.4337 26.9507 39.3326 27.0469C39.2316 27.1432 39.1513 27.2589 39.0963 27.3872C39.0415 27.5154 39.0132 27.6536 39.0134 27.793V33.5222C39.0134 33.8086 39.1272 34.0834 39.3297 34.2859C39.5324 34.4884 39.807 34.6022 40.0934 34.6022C40.3799 34.6022 40.6546 34.4884 40.8572 34.2859C41.0597 34.0834 41.1734 33.8086 41.1734 33.5222V27.865C41.1817 27.7166 41.1576 27.5682 41.1029 27.43C41.0482 27.2917 40.9642 27.167 40.8566 27.0643C40.749 26.9616 40.6206 26.8835 40.48 26.8353C40.3394 26.7871 40.1899 26.7699 40.042 26.785L40.0934 26.7645ZM36.6786 28.9656C36.2911 28.9629 35.914 28.8408 35.5986 28.6159V36.0936C35.5986 36.3801 35.7123 36.6548 35.9149 36.8573C36.1175 37.0599 36.3921 37.1736 36.6786 37.1736C36.965 37.1736 37.2397 37.0599 37.4423 36.8573C37.6448 36.6548 37.7586 36.3801 37.7586 36.0936V28.6262C37.4323 28.8692 37.034 28.996 36.6272 28.9862L36.6786 28.9656ZM27.4729 34.6948V13.8045C27.4702 13.5498 27.3671 13.3066 27.1861 13.1274C27.005 12.9483 26.7607 12.8479 26.506 12.8479H26.2797C26.0251 12.8479 25.7807 12.9483 25.5997 13.1274C25.4186 13.3066 25.3156 13.5498 25.3129 13.8045V34.6948C25.3129 34.9512 25.4147 35.1971 25.5961 35.3784C25.7774 35.5598 26.0233 35.6616 26.2797 35.6616H26.506C26.7624 35.6616 27.0084 35.5598 27.1897 35.3784C27.371 35.1971 27.4729 34.9512 27.4729 34.6948ZM29.9209 33.1725H29.6946C29.4382 33.1725 29.1922 33.0706 29.0109 32.8893C28.8296 32.708 28.7277 32.462 28.7277 32.2056V16.2936C28.7304 16.039 28.8335 15.7957 29.0145 15.6166C29.1955 15.4375 29.4399 15.337 29.6946 15.337H29.9209C30.1755 15.337 30.4199 15.4375 30.6009 15.6166C30.782 15.7957 30.885 16.039 30.8877 16.2936V32.2262C30.8877 32.4826 30.7859 32.7285 30.6045 32.9099C30.4232 33.0912 30.1773 33.193 29.9209 33.193V33.1725ZM33.3254 30.7245H33.0889C32.8352 30.7245 32.5919 30.6237 32.4125 30.4443C32.2331 30.2649 32.1323 30.0216 32.1323 29.7679V18.7622C32.131 18.6357 32.1547 18.5102 32.2021 18.393C32.2496 18.2757 32.3198 18.1691 32.4088 18.0791C32.4977 17.9892 32.6037 17.9178 32.7204 17.8691C32.8372 17.8204 32.9624 17.7953 33.0889 17.7953H33.3254C33.5801 17.798 33.8234 17.9011 34.0024 18.0821C34.1816 18.2632 34.282 18.5075 34.282 18.7622V29.7679C34.282 30.0216 34.1812 30.2649 34.0018 30.4443C33.8224 30.6237 33.5792 30.7245 33.3254 30.7245ZM36.73 28.2045H36.514C36.2593 28.2045 36.0149 28.1041 35.8339 27.9249C35.6529 27.7458 35.5498 27.5026 35.5472 27.2479V21.3233C35.5387 21.1913 35.5574 21.0589 35.6023 20.9343C35.647 20.8099 35.717 20.6958 35.8076 20.5994C35.8982 20.5029 36.0076 20.4262 36.1292 20.3738C36.2507 20.3214 36.3816 20.2944 36.514 20.2948H36.7403C36.9967 20.2948 37.2426 20.3966 37.424 20.5779C37.6053 20.7593 37.7072 21.0052 37.7072 21.2616V27.2273C37.7085 27.3552 37.6845 27.482 37.6365 27.6005C37.5886 27.719 37.5176 27.8268 37.4276 27.9177C37.3377 28.0085 37.2307 28.0806 37.1126 28.1299C36.9947 28.1792 36.8681 28.2045 36.7403 28.2045H36.73ZM40.1449 25.993H39.9186C39.6622 25.993 39.4162 25.8912 39.2349 25.7099C39.0535 25.5285 38.9517 25.2826 38.9517 25.0262V23.4936C38.9544 23.2389 39.0575 22.9957 39.2385 22.8166C39.4195 22.6374 39.6639 22.537 39.9186 22.537H40.1449C40.3995 22.537 40.6439 22.6374 40.825 22.8166C41.006 22.9957 41.109 23.2389 41.1117 23.4936V25.0262C41.1117 25.2809 41.0113 25.5252 40.8322 25.7063C40.6531 25.8873 40.4098 25.9904 40.1552 25.993H40.1449Z" fill="#707070"/>
<path d="M50.9064 22.3262C51.2767 22.3262 51.4001 22.4599 51.4001 22.8199V30.9662H55.5864C55.9464 30.9662 56.0801 31.0999 56.0801 31.4599V32.1799C56.0801 32.5399 55.9464 32.6736 55.5864 32.6736H50.0732C49.7132 32.6736 49.5692 32.5399 49.5692 32.1799V22.8199C49.5692 22.4599 49.7132 22.3262 50.0732 22.3262H50.9064Z" fill="#707070"/>
<path d="M61.0801 25.9161C61.0801 23.5401 62.5818 22.1104 65.1944 22.1104C67.807 22.1104 69.3087 23.5401 69.3087 25.9161V29.0841C69.3087 31.4601 67.7967 32.8898 65.1944 32.8898C62.5921 32.8898 61.0801 31.4601 61.0801 29.0841V25.9161ZM67.5807 25.9161C67.5807 24.5789 66.7475 23.8589 65.2458 23.8589C63.7441 23.8589 62.9212 24.5892 62.9212 25.9161V29.1046C62.9212 30.4521 63.7441 31.1618 65.2458 31.1618C66.7475 31.1618 67.5807 30.4212 67.5807 29.1046V25.9161Z" fill="#707070"/>
<path d="M82.1052 27.0426C82.5064 27.0426 82.5989 27.1763 82.5989 27.5363V29.4906C82.6099 29.9509 82.5176 30.4079 82.3289 30.8279C82.1402 31.2479 81.86 31.6204 81.5087 31.918C80.6361 32.6128 79.536 32.9575 78.4229 32.8849C75.7589 32.8849 74.3087 31.4552 74.3087 29.0792V25.8906C74.3087 23.5455 75.8104 22.1055 78.4229 22.1055C80.4801 22.1055 81.8172 22.918 82.3829 24.5432C82.4146 24.6043 82.4316 24.6719 82.4325 24.7406C82.4335 24.8094 82.4183 24.8775 82.3884 24.9393C82.3585 25.0012 82.3144 25.0553 82.2599 25.0973C82.2054 25.1391 82.1418 25.1678 82.0744 25.1809L81.2721 25.4586C80.9224 25.582 80.7784 25.51 80.6549 25.15C80.4845 24.7107 80.1725 24.3407 79.7683 24.0985C79.3641 23.8564 78.8907 23.7558 78.4229 23.8129C76.9109 23.8129 76.0881 24.5432 76.0881 25.87V29.1409C76.0881 30.4883 76.9212 31.198 78.4229 31.198C79.9247 31.198 80.8504 30.5089 80.8504 29.5009V28.7398H78.6184C78.2481 28.7398 78.1144 28.5958 78.1144 28.2358V27.5363C78.1144 27.1763 78.2481 27.0426 78.6184 27.0426H82.1052Z" fill="#707070"/>
<path d="M87.5998 25.9161C87.5998 23.5401 89.1015 22.1104 91.7141 22.1104C94.3267 22.1104 95.8284 23.5401 95.8284 25.9161V29.0841C95.8284 31.4601 94.3164 32.8898 91.7141 32.8898C89.1118 32.8898 87.5998 31.4601 87.5998 29.0841V25.9161ZM94.0901 25.9161C94.0901 24.5789 93.257 23.8589 91.7655 23.8589C90.2741 23.8589 89.4307 24.5892 89.4307 25.9161V29.1046C89.4307 30.4521 90.2638 31.1618 91.7655 31.1618C93.2672 31.1618 94.0901 30.4212 94.0901 29.1046V25.9161Z" fill="#707070"/>
<path d="M100.828 22.6245C100.828 22.3982 100.9 22.3262 101.127 22.3262H101.6C101.826 22.3262 101.878 22.3982 101.878 22.6245V32.3753C101.878 32.6016 101.878 32.6736 101.6 32.6736H101.127C100.9 32.6736 100.828 32.6016 100.828 32.3753V22.6245Z" fill="#707070"/>
<path d="M111.012 22.3262C111.869 22.3262 112.69 22.6664 113.296 23.2721C113.902 23.8778 114.242 24.6993 114.242 25.5559C114.242 26.4125 113.902 27.234 113.296 27.8396C112.69 28.4453 111.869 28.7856 111.012 28.7856H107.927V32.3753C107.927 32.6016 107.875 32.6736 107.659 32.6736H107.176C106.96 32.6736 106.878 32.6016 106.878 32.3753V22.6245C106.878 22.3982 106.96 22.3262 107.176 22.3262H111.012ZM110.92 27.7673C111.214 27.7673 111.506 27.7093 111.778 27.5967C112.05 27.4839 112.297 27.3188 112.505 27.1106C112.714 26.9024 112.879 26.6551 112.991 26.3832C113.104 26.1111 113.162 25.8195 113.162 25.525C113.162 25.2305 113.104 24.9389 112.991 24.6669C112.879 24.3949 112.714 24.1477 112.505 23.9395C112.297 23.7313 112.05 23.5661 111.778 23.4534C111.506 23.3408 111.214 23.2827 110.92 23.2827H107.834V27.7673H110.92Z" fill="#707070"/>
<path d="M123.19 22.1042C123.984 22.0166 124.785 22.1874 125.474 22.5913C126.163 22.9953 126.704 23.6108 127.016 24.3465C127.098 24.5111 127.016 24.6448 126.852 24.7271L126.399 24.9328C126.214 25.0048 126.142 24.9945 126.029 24.7991C125.796 24.2531 125.395 23.7954 124.885 23.4921C124.374 23.1889 123.781 23.0558 123.19 23.1122C121.452 23.1122 120.505 23.8013 120.505 25.0356C120.495 25.4128 120.622 25.781 120.862 26.0721C121.102 26.3632 121.439 26.5577 121.812 26.6196C122.365 26.8 122.938 26.9106 123.519 26.9488C124.222 26.9862 124.915 27.1284 125.576 27.3705C126.083 27.5308 126.519 27.8606 126.811 28.3045C127.104 28.7485 127.234 29.2794 127.181 29.8082C127.181 31.7316 125.782 32.8939 123.21 32.8939C122.367 32.9904 121.516 32.795 120.799 32.3401C120.082 31.8854 119.543 31.1986 119.271 30.3945C119.253 30.3579 119.243 30.3176 119.242 30.2767C119.241 30.2358 119.25 30.1952 119.266 30.1579C119.283 30.1206 119.308 30.0873 119.339 30.0607C119.37 30.034 119.406 30.0145 119.446 30.0036L119.898 29.8391C119.934 29.8244 119.972 29.8175 120.011 29.8185C120.049 29.8195 120.087 29.8286 120.122 29.845C120.157 29.8615 120.188 29.8849 120.213 29.914C120.238 29.9431 120.257 29.9771 120.269 30.0139C120.499 30.5949 120.908 31.0876 121.437 31.4206C121.966 31.7534 122.587 31.9093 123.21 31.8653C125.154 31.8653 126.111 31.1865 126.111 29.8082C126.129 29.4459 126.018 29.0889 125.798 28.8007C125.577 28.5126 125.262 28.3119 124.908 28.2345C124.375 28.0758 123.827 27.9791 123.272 27.9465L122.161 27.8025C121.814 27.7287 121.47 27.636 121.133 27.5248C120.799 27.4241 120.488 27.2599 120.217 27.0413C119.944 26.7943 119.729 26.4902 119.587 26.1507C119.445 25.8112 119.379 25.4446 119.394 25.0768C119.466 23.2768 120.814 22.1042 123.19 22.1042Z" fill="#707070"/>
<path d="M133.252 29.048C133.295 29.7754 133.615 30.4587 134.146 30.9582C134.676 31.4578 135.378 31.7359 136.106 31.7359C136.834 31.7359 137.536 31.4578 138.067 30.9582C138.597 30.4587 138.916 29.7754 138.96 29.048V22.5165C138.96 22.2903 139.032 22.2183 139.259 22.2183H139.732C139.958 22.2183 140.03 22.2903 140.03 22.5165V29.0377C140.03 31.3725 138.652 32.7817 136.111 32.7817C133.571 32.7817 132.192 31.3725 132.192 29.0377V22.5165C132.192 22.2903 132.264 22.2183 132.48 22.2183H132.964C133.18 22.2183 133.252 22.2903 133.252 22.5165V29.048Z" fill="#707070"/>
<path d="M154.112 22.3272C154.339 22.3272 154.411 22.3992 154.411 22.6255V32.3763C154.411 32.6026 154.339 32.6746 154.112 32.6746H153.68C153.464 32.6746 153.392 32.6026 153.392 32.3763V26.4415C153.392 25.578 153.451 24.7154 153.567 23.8598H153.506C153.185 24.6422 152.809 25.4017 152.384 26.1329L150.173 30.0312C150.146 30.0989 150.099 30.1567 150.038 30.1971C149.978 30.2374 149.907 30.2585 149.834 30.2575H149.546C149.471 30.2579 149.399 30.2366 149.337 30.1965C149.275 30.1563 149.226 30.0989 149.196 30.0312L146.954 26.0918C146.555 25.371 146.212 24.6215 145.925 23.8495H145.863C145.968 24.713 146.024 25.5819 146.028 26.4518V32.3763C146.028 32.6026 145.956 32.6746 145.73 32.6746H145.328C145.102 32.6746 145.03 32.6026 145.03 32.3763V22.6255C145.03 22.3992 145.102 22.3272 145.328 22.3272H145.699C145.783 22.3194 145.868 22.3378 145.941 22.3802C146.015 22.4225 146.074 22.4867 146.11 22.5638L149.71 28.9615L153.29 22.6255C153.403 22.4095 153.464 22.3786 153.691 22.3786L154.112 22.3272Z" fill="#707070"/>
</svg>
