<svg width="160" height="52" viewBox="0 0 160 52" fill="none" xmlns="http://www.w3.org/2000/svg">
<g clip-path="url(#clip0_9_450)">
<path d="M-0.137329 46.4398C8.3811 46.4398 15.2866 39.5342 15.2866 31.0159C15.2866 22.4974 8.3811 15.5919 -0.137329 15.5919V26.3886C2.41818 26.3886 4.48982 28.4603 4.48982 31.0159C4.48982 33.5714 2.41818 35.643 -0.137329 35.643V46.4398Z" fill="#3305BB"/>
<path d="M51.2757 20.7333C48.64 19.8984 45.8333 19.4479 42.9211 19.4479C27.6589 19.4479 15.2866 31.8204 15.2866 47.0824C15.2866 48.6143 15.4113 50.1171 15.6509 51.5811H32.8211C32.2082 50.2069 31.8674 48.6845 31.8674 47.0824C31.8674 40.9776 36.8163 36.0286 42.9211 36.0286C46.2578 36.0286 49.249 37.507 51.2757 39.8444V20.7333Z" fill="#FF7D13"/>
<path d="M2.57452 0.167969C3.85327 11.7358 13.6606 20.7333 25.5693 20.7333C37.4778 20.7333 47.2851 11.7358 48.5638 0.167969H32.0183C30.9968 2.72862 28.4943 4.53807 25.5693 4.53807C22.6441 4.53807 20.1417 2.72862 19.12 0.167969H2.57452Z" fill="#3305BB"/>
</g>
<path d="M88.96 19.04V33H86.16V27.06H80.18V33H77.38V19.04H80.18V24.78H86.16V19.04H88.96ZM96.6359 33.18C95.5693 33.18 94.6093 32.9467 93.7559 32.48C92.9026 32 92.2293 31.3267 91.7359 30.46C91.2559 29.5933 91.0159 28.5933 91.0159 27.46C91.0159 26.3267 91.2626 25.3267 91.7559 24.46C92.2626 23.5933 92.9493 22.9267 93.8159 22.46C94.6826 21.98 95.6493 21.74 96.7159 21.74C97.7826 21.74 98.7493 21.98 99.6159 22.46C100.483 22.9267 101.163 23.5933 101.656 24.46C102.163 25.3267 102.416 26.3267 102.416 27.46C102.416 28.5933 102.156 29.5933 101.636 30.46C101.129 31.3267 100.436 32 99.5559 32.48C98.6893 32.9467 97.7159 33.18 96.6359 33.18ZM96.6359 30.74C97.1426 30.74 97.6159 30.62 98.0559 30.38C98.5093 30.1267 98.8693 29.7533 99.1359 29.26C99.4026 28.7667 99.5359 28.1667 99.5359 27.46C99.5359 26.4067 99.2559 25.6 98.6959 25.04C98.1493 24.4667 97.4759 24.18 96.6759 24.18C95.8759 24.18 95.2026 24.4667 94.6559 25.04C94.1226 25.6 93.8559 26.4067 93.8559 27.46C93.8559 28.5133 94.1159 29.3267 94.6359 29.9C95.1693 30.46 95.8359 30.74 96.6359 30.74ZM107.73 24.22V29.58C107.73 29.9533 107.817 30.2267 107.99 30.4C108.177 30.56 108.483 30.64 108.91 30.64H110.21V33H108.45C106.09 33 104.91 31.8533 104.91 29.56V24.22H103.59V21.92H104.91V19.18H107.73V21.92H110.21V24.22H107.73ZM122.524 27.22C122.524 27.62 122.497 27.98 122.444 28.3H114.344C114.41 29.1 114.69 29.7267 115.184 30.18C115.677 30.6333 116.284 30.86 117.004 30.86C118.044 30.86 118.784 30.4133 119.224 29.52H122.244C121.924 30.5867 121.31 31.4667 120.404 32.16C119.497 32.84 118.384 33.18 117.064 33.18C115.997 33.18 115.037 32.9467 114.184 32.48C113.344 32 112.684 31.3267 112.204 30.46C111.737 29.5933 111.504 28.5933 111.504 27.46C111.504 26.3133 111.737 25.3067 112.204 24.44C112.67 23.5733 113.324 22.9067 114.164 22.44C115.004 21.9733 115.97 21.74 117.064 21.74C118.117 21.74 119.057 21.9667 119.884 22.42C120.724 22.8733 121.37 23.52 121.824 24.36C122.29 25.1867 122.524 26.14 122.524 27.22ZM119.624 26.42C119.61 25.7 119.35 25.1267 118.844 24.7C118.337 24.26 117.717 24.04 116.984 24.04C116.29 24.04 115.704 24.2533 115.224 24.68C114.757 25.0933 114.47 25.6733 114.364 26.42H119.624ZM127.368 18.2V33H124.568V18.2H127.368ZM145.354 19.04V33H142.554V23.92L138.814 33H136.694L132.934 23.92V33H130.134V19.04H133.314L137.754 29.42L142.194 19.04H145.354ZM158.582 21.92V33H155.762V31.6C155.402 32.08 154.929 32.46 154.342 32.74C153.769 33.0067 153.142 33.14 152.462 33.14C151.596 33.14 150.829 32.96 150.162 32.6C149.496 32.2267 148.969 31.6867 148.582 30.98C148.209 30.26 148.022 29.4067 148.022 28.42V21.92H150.822V28.02C150.822 28.9 151.042 29.58 151.482 30.06C151.922 30.5267 152.522 30.76 153.282 30.76C154.056 30.76 154.662 30.5267 155.102 30.06C155.542 29.58 155.762 28.9 155.762 28.02V21.92H158.582Z" fill="#3305BB"/>
<defs>
<clipPath id="clip0_9_450">
<rect width="52" height="52" fill="white"/>
</clipPath>
</defs>
</svg>
