<svg width="20" height="20" viewBox="0 0 20 20" fill="none" xmlns="http://www.w3.org/2000/svg">
<g clip-path="url(#clip0_107_565)">
<path d="M9.99998 4.91634C10.9666 4.91634 11.75 5.69967 11.75 6.66634C11.75 7.63301 10.9666 8.41634 9.99998 8.41634C9.03331 8.41634 8.24998 7.63301 8.24998 6.66634C8.24998 5.69967 9.03331 4.91634 9.99998 4.91634ZM9.99998 12.4163C12.475 12.4163 15.0833 13.633 15.0833 14.1663V15.083H4.91665V14.1663C4.91665 13.633 7.52498 12.4163 9.99998 12.4163ZM9.99998 3.33301C8.15831 3.33301 6.66665 4.82467 6.66665 6.66634C6.66665 8.50801 8.15831 9.99967 9.99998 9.99967C11.8416 9.99967 13.3333 8.50801 13.3333 6.66634C13.3333 4.82467 11.8416 3.33301 9.99998 3.33301ZM9.99998 10.833C7.77498 10.833 3.33331 11.9497 3.33331 14.1663V16.6663H16.6666V14.1663C16.6666 11.9497 12.225 10.833 9.99998 10.833Z" fill="#3305BB"/>
</g>
<defs>
<clipPath id="clip0_107_565">
<rect width="20" height="20" fill="white"/>
</clipPath>
</defs>
</svg>
