<svg width="20" height="20" viewBox="0 0 20 20" fill="none" xmlns="http://www.w3.org/2000/svg">
<g clip-path="url(#clip0_12_10600)">
<path d="M18.3334 10.0001C18.3334 9.08341 17.5834 8.33341 16.6667 8.33341V5.83341C16.6667 4.91675 15.9167 4.16675 15 4.16675H5.00002C4.08335 4.16675 3.33335 4.91675 3.33335 5.83341V8.33341C2.41669 8.33341 1.66669 9.08341 1.66669 10.0001V14.1667H2.77502L3.33335 15.8334H4.16669L4.72502 14.1667H15.2834L15.8334 15.8334H16.6667L17.225 14.1667H18.3334V10.0001ZM15 8.33341H10.8334V5.83341H15V8.33341ZM5.00002 5.83341H9.16669V8.33341H5.00002V5.83341ZM3.33335 10.0001H16.6667V12.5001H3.33335V10.0001Z" fill="#667085"/>
</g>
<defs>
<clipPath id="clip0_12_10600">
<rect width="20" height="20" fill="white"/>
</clipPath>
</defs>
</svg>
