<svg width="56" height="56" viewBox="0 0 56 56" fill="none" xmlns="http://www.w3.org/2000/svg">
<circle cx="28" cy="28" r="28" fill="#FF7D13" fill-opacity="0.05"/>
<path d="M24.1387 25.3466C24.1512 24.389 24.5371 23.4743 25.2143 22.7971C25.8914 22.12 26.8062 21.7341 27.7637 21.7216C28.7212 21.7341 29.636 22.12 30.3131 22.7971C30.9902 23.4743 31.3762 24.389 31.3887 25.3466C31.3762 26.3041 30.9902 27.2188 30.3131 27.896C29.636 28.5731 28.7212 28.959 27.7637 28.9716C26.8062 28.959 25.8914 28.5731 25.2143 27.896C24.5371 27.2188 24.1512 26.3041 24.1387 25.3466ZM27.7637 36.2216L32.597 37.4299V33.7082C31.1394 34.586 29.465 35.0381 27.7637 35.0132C26.0623 35.0381 24.388 34.586 22.9303 33.7082V37.4299M27.7637 18.0966C26.8115 18.0792 25.8658 18.2567 24.9847 18.6183C24.1037 18.9799 23.3059 19.5178 22.6403 20.1991C21.9517 20.8653 21.4076 21.6661 21.0417 22.5516C20.6758 23.4372 20.4961 24.3886 20.5137 25.3466C20.5011 26.2985 20.6832 27.2429 21.049 28.1219C21.4147 29.0008 21.9562 29.7958 22.6403 30.4578C23.3027 31.1456 24.0992 31.6903 24.9804 32.0581C25.8616 32.426 26.8089 32.6092 27.7637 32.5966C28.7185 32.6092 29.6658 32.426 30.547 32.0581C31.4282 31.6903 32.2246 31.1456 32.887 30.4578C33.5711 29.7958 34.1127 29.0008 34.4784 28.1219C34.8441 27.2429 35.0263 26.2985 35.0137 25.3466C35.0312 24.3886 34.8515 23.4372 34.4856 22.5516C34.1198 21.6661 33.5756 20.8653 32.887 20.1991C32.2215 19.5178 31.4237 18.9799 30.5426 18.6183C29.6616 18.2567 28.7159 18.0792 27.7637 18.0966ZM37.4303 25.3466C37.4046 26.5064 37.1714 27.6523 36.7416 28.7299C36.3544 29.8264 35.7687 30.8422 35.0137 31.7266V41.0549L27.7637 38.6382L20.5137 41.0549V31.7266C18.9497 29.9702 18.0892 27.6983 18.097 25.3466C18.0757 24.0785 18.3146 22.8196 18.7988 21.6474C19.283 20.4753 20.0024 19.4148 20.9124 18.5316C21.799 17.6133 22.8643 16.8866 24.0427 16.3961C25.2211 15.9056 26.4874 15.6619 27.7637 15.6799C29.0399 15.6619 30.3063 15.9056 31.4847 16.3961C32.663 16.8866 33.7284 17.6133 34.6149 18.5316C35.525 19.4148 36.2443 20.4753 36.7286 21.6474C37.2128 22.8196 37.4516 24.0785 37.4303 25.3466Z" fill="#FF7D13"/>
</svg>
