<svg width="20" height="20" viewBox="0 0 20 20" fill="none" xmlns="http://www.w3.org/2000/svg">
<g clip-path="url(#clip0_107_568)">
<path d="M18.3334 10.0003C18.3334 9.08366 17.5834 8.33366 16.6667 8.33366V5.83366C16.6667 4.91699 15.9167 4.16699 15 4.16699H5.00002C4.08335 4.16699 3.33335 4.91699 3.33335 5.83366V8.33366C2.41669 8.33366 1.66669 9.08366 1.66669 10.0003V14.167H2.77502L3.33335 15.8337H4.16669L4.72502 14.167H15.2834L15.8334 15.8337H16.6667L17.225 14.167H18.3334V10.0003ZM15 8.33366H10.8334V5.83366H15V8.33366ZM5.00002 5.83366H9.16669V8.33366H5.00002V5.83366ZM3.33335 10.0003H16.6667V12.5003H3.33335V10.0003Z" fill="#FF7D13"/>
</g>
<defs>
<clipPath id="clip0_107_568">
<rect width="20" height="20" fill="white"/>
</clipPath>
</defs>
</svg>
