<svg width="20" height="20" viewBox="0 0 20 20" fill="none" xmlns="http://www.w3.org/2000/svg">
<g clip-path="url(#clip0_107_696)">
<path d="M18.3333 10.0003C18.3333 9.08366 17.5833 8.33366 16.6667 8.33366V5.83366C16.6667 4.91699 15.9167 4.16699 15 4.16699H4.99999C4.08332 4.16699 3.33332 4.91699 3.33332 5.83366V8.33366C2.41666 8.33366 1.66666 9.08366 1.66666 10.0003V14.167H2.77499L3.33332 15.8337H4.16666L4.72499 14.167H15.2833L15.8333 15.8337H16.6667L17.225 14.167H18.3333V10.0003ZM15 8.33366H10.8333V5.83366H15V8.33366ZM4.99999 5.83366H9.16666V8.33366H4.99999V5.83366ZM3.33332 10.0003H16.6667V12.5003H3.33332V10.0003Z" fill="#FA00C1"/>
</g>
<defs>
<clipPath id="clip0_107_696">
<rect width="20" height="20" fill="white"/>
</clipPath>
</defs>
</svg>
