<svg width="17" height="17" viewBox="0 0 17 17" fill="none" xmlns="http://www.w3.org/2000/svg">
<g clip-path="url(#clip0_149_2489)">
<path d="M4.75001 13.1667C4.75001 13.9 5.35001 14.5 6.08334 14.5H11.4167C12.15 14.5 12.75 13.9 12.75 13.1667V6.5C12.75 5.76667 12.15 5.16667 11.4167 5.16667H6.08334C5.35001 5.16667 4.75001 5.76667 4.75001 6.5V13.1667ZM12.75 3.16667H11.0833L10.61 2.69333C10.49 2.57333 10.3167 2.5 10.1433 2.5H7.35668C7.18334 2.5 7.01001 2.57333 6.89001 2.69333L6.41668 3.16667H4.75001C4.38334 3.16667 4.08334 3.46667 4.08334 3.83333C4.08334 4.2 4.38334 4.5 4.75001 4.5H12.75C13.1167 4.5 13.4167 4.2 13.4167 3.83333C13.4167 3.46667 13.1167 3.16667 12.75 3.16667Z" fill="#707070"/>
</g>
<defs>
<clipPath id="clip0_149_2489">
<rect width="16" height="16" fill="white" transform="translate(0.75 0.5)"/>
</clipPath>
</defs>
</svg>
