<svg width="20" height="20" viewBox="0 0 20 20" fill="none" xmlns="http://www.w3.org/2000/svg">
<g clip-path="url(#clip0_142_849)">
<path d="M16.4834 14.5915C14.425 14.5915 11.0084 13.4831 9.25003 10.0665C7.30836 6.30814 8.83336 2.9998 9.69169 1.6748C5.22502 1.83314 1.65002 5.49147 1.65002 9.9998C1.65002 10.1165 1.66669 10.2331 1.66669 10.3498C2.17502 10.1331 2.73336 9.9998 3.31669 9.9998C3.31669 7.4248 4.75836 5.19147 6.90002 4.08314C6.48336 5.90814 6.45002 8.28314 7.76669 10.8331C9.07502 13.3665 11.25 14.9581 13.4334 15.7165C12.4084 16.3331 11.225 16.6748 9.99169 16.6748C9.57503 16.6748 9.15836 16.6331 8.75836 16.5581C8.45003 17.1415 7.97502 17.6165 7.39169 17.9248C8.20836 18.1915 9.08336 18.3415 9.98336 18.3415C12.9 18.3415 15.4667 16.8415 16.9584 14.5748C16.8167 14.5831 16.65 14.5915 16.4834 14.5915Z" fill="#667085"/>
<path d="M5.83334 13.3332H5.68334C5.33334 12.3665 4.41668 11.6665 3.33334 11.6665C1.95001 11.6665 0.833344 12.7832 0.833344 14.1665C0.833344 15.5498 1.95001 16.6665 3.33334 16.6665C3.85001 16.6665 5.40834 16.6665 5.83334 16.6665C6.75001 16.6665 7.50001 15.9165 7.50001 14.9998C7.50001 14.0832 6.75001 13.3332 5.83334 13.3332Z" fill="#667085"/>
</g>
<defs>
<clipPath id="clip0_142_849">
<rect width="20" height="20" fill="white"/>
</clipPath>
</defs>
</svg>
