<svg width="246" height="55" viewBox="0 0 246 55" fill="none" xmlns="http://www.w3.org/2000/svg">
<path d="M25 38.5316H29.1966V16.4688H25V38.5316Z" fill="#707070"/>
<path d="M40.4664 35.8623C45.3726 35.8623 48.736 32.2212 48.736 27.5C48.736 22.7788 45.3726 19.1377 40.4664 19.1377C35.56 19.1377 32.1966 22.7788 32.1966 27.5C32.1966 32.2212 35.56 35.8623 40.4664 35.8623ZM40.4664 32.6532C37.8744 32.6532 36.4549 30.5857 36.4549 27.5C36.4549 24.4143 37.8744 22.316 40.4664 22.316C43.0275 22.316 44.4777 24.4143 44.4777 27.5C44.4777 30.5857 43.0275 32.6532 40.4664 32.6532Z" fill="#707070"/>
<path d="M59.4811 38.3309C61.8262 38.3309 63.8628 37.7755 65.1896 36.5412C66.3622 35.4612 67.072 33.9492 67.072 31.7275V17.1012H63.0297V18.7675H62.968C62.0114 17.4407 60.5611 16.6692 58.5862 16.6692C54.5748 16.6692 51.736 19.6932 51.736 24.4143C51.736 29.1972 55.192 31.9743 58.7097 31.9743C60.7154 31.9743 61.9188 31.1721 62.8445 30.1229H62.9371V31.8509C62.9371 34.0109 61.7954 35.1527 59.4194 35.1527C57.4754 35.1527 56.5805 34.3812 56.2411 33.3938H52.0754C52.5074 36.4795 55.1611 38.3309 59.4811 38.3309ZM59.4194 28.6109C57.2594 28.6109 55.84 27.0372 55.84 24.3527C55.84 21.6989 57.2594 20.0327 59.3885 20.0327C61.9188 20.0327 63.1531 22.0075 63.1531 24.3218C63.1531 26.6669 62.0731 28.6109 59.4194 28.6109Z" fill="#707070"/>
<path d="M78.3417 35.8623C83.248 35.8623 86.6114 32.2212 86.6114 27.5C86.6114 22.7788 83.248 19.1377 78.3417 19.1377C73.4354 19.1377 70.072 22.7788 70.072 27.5C70.072 32.2212 73.4354 35.8623 78.3417 35.8623ZM78.3417 32.6532C75.7497 32.6532 74.3303 30.5857 74.3303 27.5C74.3303 24.4143 75.7497 22.316 78.3417 22.316C80.9028 22.316 82.3532 24.4143 82.3532 27.5C82.3532 30.5857 80.9028 32.6532 78.3417 32.6532Z" fill="#707070"/>
<path fill-rule="evenodd" clip-rule="evenodd" d="M107.611 9.5C117.552 9.5 125.612 17.5589 125.612 27.5C125.612 37.4411 117.552 45.5 107.611 45.5C97.6703 45.5 89.6115 37.4411 89.6115 27.5C89.6115 17.5589 97.6703 9.5 107.611 9.5ZM106.961 10.8469C104.907 11.1359 102.952 12.786 101.434 15.5457C100.994 16.3461 100.597 17.2305 100.25 18.1854C102.314 17.6668 104.582 17.361 106.961 17.3137V10.8469ZM98.7291 18.6177C99.1596 17.2666 99.6862 16.0236 100.294 14.9186C101.046 13.5505 101.939 12.3692 102.945 11.4618C97.4745 13.0507 93.1621 17.3631 91.5732 22.8341C92.4806 21.828 93.6619 20.935 95.03 20.1826C96.135 19.5749 97.378 19.0482 98.7291 18.6177ZM98.2968 20.139C97.7781 22.2029 97.4724 24.4701 97.4251 26.8494H90.9583C91.2473 24.7959 92.8974 22.8405 95.6571 21.3228C96.4576 20.8825 97.3419 20.4852 98.2968 20.139ZM98.7266 26.8494C98.7803 24.2528 99.1542 21.8151 99.7726 19.6612C101.927 19.0427 104.364 18.6688 106.961 18.6151V21.4257C105.992 23.9056 104.016 25.8811 101.537 26.8494H98.7266ZM97.4251 28.1506H90.9583C91.2473 30.2041 92.8974 32.1594 95.6571 33.6772C96.4576 34.1175 97.3419 34.5148 98.2968 34.861C97.7781 32.7971 97.4724 30.5299 97.4251 28.1506ZM99.7726 35.3388C99.1542 33.1849 98.7803 30.7472 98.7266 28.1506H101.537C104.016 29.1189 105.992 31.0944 106.961 33.5743V36.3849C104.364 36.3312 101.927 35.9573 99.7726 35.3388ZM98.7291 36.3823C97.378 35.9518 96.135 35.4251 95.03 34.8174C93.6619 34.065 92.4806 33.172 91.5732 32.1659C93.1621 37.6369 97.4745 41.9493 102.945 43.5382C101.939 42.6308 101.046 41.4495 100.294 40.0814C99.6862 38.9764 99.1596 37.7334 98.7291 36.3823ZM106.961 44.1531C104.907 43.8641 102.952 42.214 101.434 39.4543C100.994 38.6539 100.597 37.7694 100.25 36.8146C102.314 37.3332 104.582 37.639 106.961 37.6863V44.1531ZM112.277 43.5382C113.283 42.6308 114.176 41.4495 114.929 40.0814C115.536 38.9764 116.064 37.7334 116.494 36.3823C117.845 35.9518 119.088 35.4251 120.193 34.8174C121.561 34.065 122.743 33.172 123.65 32.1659C122.06 37.6369 117.748 41.9493 112.277 43.5382ZM114.973 36.8146C114.626 37.7694 114.229 38.6539 113.788 39.4543C112.271 42.214 110.316 43.8641 108.262 44.1531V37.6863C110.641 37.639 112.908 37.3332 114.973 36.8146ZM116.926 34.861C117.881 34.5148 118.765 34.1175 119.566 33.6772C122.326 32.1595 123.976 30.2041 124.264 28.1506H117.798C117.75 30.5299 117.444 32.7971 116.926 34.861ZM116.497 28.1506C116.443 30.7472 116.069 33.1849 115.45 35.3388C113.296 35.9573 110.859 36.3312 108.262 36.3849V33.5763C109.23 31.0956 111.207 29.1192 113.687 28.1506H116.497ZM117.798 26.8494H124.264C123.976 24.7959 122.326 22.8405 119.566 21.3228C118.765 20.8825 117.881 20.4852 116.926 20.139C117.444 22.2029 117.75 24.4701 117.798 26.8494ZM115.45 19.6612C116.069 21.8151 116.443 24.2528 116.497 26.8494H113.687C111.207 25.8808 109.23 23.9044 108.262 21.4236V18.6151C110.859 18.6688 113.296 19.0427 115.45 19.6612ZM116.494 18.6177C117.845 19.0482 119.088 19.5749 120.193 20.1826C121.561 20.935 122.743 21.828 123.65 22.8341C122.06 17.3631 117.748 13.0507 112.277 11.4618C113.283 12.3692 114.176 13.5505 114.929 14.9186C115.536 16.0236 116.064 17.2666 116.494 18.6177ZM108.262 10.8469C110.316 11.1359 112.271 12.786 113.788 15.5457C114.229 16.3462 114.626 17.2305 114.973 18.1854C112.908 17.6668 110.641 17.361 108.262 17.3137V10.8469Z" fill="#707070"/>
<path d="M128.612 38.5316H132.808V22.7019H128.612V38.5316ZM128.612 20.2333H132.808V16.4688H128.612V20.2333Z" fill="#707070"/>
<path d="M135.808 38.2228H140.005V31.2491H140.066C140.961 32.6068 142.412 33.5017 144.633 33.5017C148.706 33.5017 151.484 30.2617 151.484 25.1395C151.484 20.2022 148.799 16.7771 144.602 16.7771C142.442 16.7771 140.961 17.7954 139.943 19.184H139.85V17.2091H135.808V38.2228ZM143.738 30.0148C141.239 30.0148 139.912 28.1326 139.912 25.2628C139.912 22.424 140.961 20.1714 143.584 20.1714C146.176 20.1714 147.225 22.2697 147.225 25.2628C147.225 28.256 145.868 30.0148 143.738 30.0148Z" fill="#707070"/>
<path d="M161.889 35.8623C165.839 35.8623 168.554 33.9492 168.554 30.7708C168.554 27.068 165.623 26.3274 162.969 25.772C160.716 25.3092 158.618 25.1857 158.618 23.828C158.618 22.6863 159.698 22.0692 161.334 22.0692C163.124 22.0692 164.204 22.6863 164.388 24.3834H168.184C167.876 21.2052 165.561 19.1377 161.396 19.1377C157.785 19.1377 154.946 20.7732 154.946 24.1983C154.946 27.6543 157.724 28.4257 160.562 28.9812C162.722 29.4132 164.728 29.5674 164.728 31.0794C164.728 32.1903 163.679 32.9 161.828 32.9C159.945 32.9 158.649 32.0977 158.372 30.2772H154.484C154.73 33.6406 157.292 35.8623 161.889 35.8623Z" fill="#707070"/>
<path d="M185.718 35.1989V19.3691H181.521V28.5029C181.521 30.6011 180.318 32.0823 178.343 32.0823C176.553 32.0823 175.72 31.064 175.72 29.2126V19.3691H171.554V29.9223C171.554 33.3783 173.529 35.6309 177.047 35.6309C179.269 35.6309 180.503 34.7978 181.583 33.3475H181.676V35.1989H185.718Z" fill="#707070"/>
<path d="M188.718 35.6309H192.914V26.4355C192.914 24.3371 194.056 22.9795 195.754 22.9795C197.296 22.9795 198.191 23.9051 198.191 25.6949V35.6309H202.388V26.4355C202.388 24.3371 203.468 22.9795 205.226 22.9795C206.77 22.9795 207.664 23.9051 207.664 25.6949V35.6309H211.861V24.9851C211.861 21.5291 209.978 19.3691 206.646 19.3691C204.64 19.3691 202.974 20.4183 201.894 22.1463H201.832C201.061 20.48 199.456 19.3691 197.45 19.3691C195.26 19.3691 193.717 20.48 192.853 21.9303H192.76V19.8011H188.718V35.6309Z" fill="#707070"/>
<path d="M214.861 27.5001C214.861 26.79 215.437 26.2144 216.147 26.2144H218.719C219.429 26.2144 220.005 26.79 220.005 27.5001C220.005 28.2102 219.429 28.7858 218.719 28.7858H216.147C215.437 28.7858 214.861 28.2102 214.861 27.5001Z" fill="#707070"/>
</svg>
