<svg width="169" height="55" viewBox="0 0 169 55" fill="none" xmlns="http://www.w3.org/2000/svg">
<path d="M51.4115 22.1306C50.9026 20.967 50.2291 19.8826 49.4115 18.9106C48.203 17.431 46.6948 16.224 44.9862 15.3692C43.2776 14.5145 41.4073 14.0312 39.4985 13.9513C37.5897 13.8714 35.6856 14.1966 33.9115 14.9056C32.1375 15.6146 30.5337 16.6913 29.2057 18.0648C27.8777 19.4382 26.8557 21.0774 26.2068 22.8743C25.558 24.6712 25.297 26.5852 25.4412 28.4902C25.5853 30.3953 26.1313 32.2482 27.0431 33.927C27.9549 35.6059 29.212 37.0726 30.7315 38.2306C31.7065 38.9885 32.7839 39.6046 33.9315 40.0606C35.5405 40.72 37.2626 41.0596 39.0015 41.0606C42.5909 41.0527 46.0307 39.6219 48.567 37.0819C51.1032 34.5419 52.5289 31.1 52.5315 27.5106C52.5341 25.6591 52.1528 23.8272 51.4115 22.1306ZM38.9915 16.7006C40.5531 16.7005 42.0958 17.0418 43.5115 17.7006C43.1663 17.8498 42.8033 17.954 42.4315 18.0106C41.2081 18.1877 40.0748 18.7557 39.2007 19.6298C38.3266 20.5039 37.7586 21.6372 37.5815 22.8606C37.5038 23.5467 37.1917 24.185 36.698 24.6678C36.2043 25.1506 35.5592 25.4482 34.8715 25.5106C33.6481 25.6877 32.5148 26.2557 31.6407 27.1298C30.7666 28.0039 30.1986 29.1372 30.0215 30.3606C29.9615 31.013 29.6832 31.6261 29.2315 32.1006C28.4522 30.4539 28.1021 28.6367 28.2138 26.8183C28.3255 24.9999 28.8954 23.2393 29.8705 21.7003C30.8455 20.1614 32.1941 18.8941 33.7906 18.0165C35.3871 17.1388 37.1797 16.6793 39.0015 16.6806L38.9915 16.7006ZM30.7215 34.5106C30.8415 34.4006 30.9615 34.3006 31.0815 34.1806C31.9712 33.3181 32.5422 32.1795 32.7015 30.9506C32.7661 30.2598 33.0745 29.6146 33.5715 29.1306C34.0498 28.6328 34.6935 28.3269 35.3815 28.2706C36.6049 28.0935 37.7382 27.5255 38.6123 26.6514C39.4864 25.7773 40.0544 24.644 40.2315 23.4206C40.2748 22.6981 40.5848 22.0174 41.1015 21.5106C41.5916 21.0225 42.2414 20.7277 42.9315 20.6806C44.0554 20.526 45.1036 20.0263 45.9315 19.2506C46.8742 20.0327 47.6728 20.9735 48.2915 22.0306C48.2535 22.0819 48.2099 22.1289 48.1615 22.1706C47.6842 22.6728 47.0413 22.9854 46.3515 23.0506C45.1268 23.2246 43.9918 23.7916 43.1171 24.6662C42.2425 25.5409 41.6755 26.6759 41.5015 27.9006C41.431 28.589 41.1247 29.2319 40.6345 29.7203C40.1442 30.2088 39.5002 30.5127 38.8115 30.5806C37.5845 30.7563 36.447 31.3232 35.5678 32.1969C34.6887 33.0707 34.1148 34.2047 33.9315 35.4306C33.8777 35.9193 33.7098 36.3886 33.4415 36.8006C32.4155 36.1914 31.4966 35.4178 30.7215 34.5106ZM38.9915 38.3706C37.9768 38.3717 36.9669 38.2303 35.9915 37.9506C36.3252 37.3286 36.5421 36.6507 36.6315 35.9506C36.7016 35.2637 37.0065 34.622 37.4947 34.1338C37.9829 33.6456 38.6246 33.3407 39.3115 33.2706C40.5367 33.0955 41.6723 32.5284 42.5484 31.6541C43.4244 30.7799 43.9939 29.6454 44.1715 28.4206C44.2416 27.7337 44.5465 27.092 45.0347 26.6038C45.5229 26.1156 46.1646 25.8107 46.8515 25.7406C47.7735 25.6207 48.6523 25.2774 49.4115 24.7406C49.8331 26.3385 49.883 28.0117 49.5575 29.6319C49.232 31.2521 48.5396 32.7763 47.5336 34.0874C46.5276 35.3984 45.2347 36.4617 43.7539 37.1955C42.2732 37.9293 40.6441 38.3142 38.9915 38.3206V38.3706Z" fill="#707070"/>
<path d="M59.5315 20.1197H62.5315V32.2497H59.5315V20.1197ZM63.7215 27.6697C63.7215 24.6697 65.5615 22.8797 68.4015 22.8797C71.2415 22.8797 73.0815 24.6697 73.0815 27.6697C73.0815 30.6697 71.2815 32.4697 68.4015 32.4697C65.5215 32.4697 63.7215 30.7197 63.7215 27.6697ZM70.0715 27.6697C70.0715 26.0197 69.4215 25.0497 68.4015 25.0497C67.3815 25.0497 66.7415 26.0497 66.7415 27.6697C66.7415 29.2897 67.3715 30.2697 68.4015 30.2697C69.4315 30.2697 70.0715 29.3497 70.0715 27.6797V27.6697ZM74.2115 32.8397H77.0915C77.2286 33.1442 77.4603 33.3963 77.7522 33.5585C78.0441 33.7206 78.3806 33.7842 78.7115 33.7397C79.8515 33.7397 80.4515 33.1197 80.4515 32.2197V30.5397H80.3915C80.1525 31.0546 79.7646 31.486 79.278 31.7784C78.7914 32.0707 78.2283 32.2105 77.6615 32.1797C75.4715 32.1797 74.0215 30.5097 74.0215 27.6397C74.0215 24.7697 75.4015 22.9597 77.7015 22.9597C78.2861 22.9368 78.8637 23.0931 79.357 23.4076C79.8503 23.7222 80.2357 24.18 80.4615 24.7197V23.0497H83.4615V32.1497C83.4615 34.3397 81.5315 35.6997 78.6815 35.6997C76.0315 35.6997 74.3815 34.5097 74.2115 32.8497V32.8397ZM80.4615 27.6597C80.4615 26.1997 79.7915 25.2797 78.7315 25.2797C77.6715 25.2797 77.0215 26.1897 77.0215 27.6597C77.0215 29.1297 77.6615 29.9597 78.7315 29.9597C79.8015 29.9597 80.4615 29.1497 80.4615 27.6697V27.6597ZM84.5915 27.6597C84.5915 24.6597 86.4315 22.8697 89.2715 22.8697C92.1115 22.8697 93.9615 24.6597 93.9615 27.6597C93.9615 30.6597 92.1615 32.4597 89.2715 32.4597C86.3815 32.4597 84.5915 30.7197 84.5915 27.6697V27.6597ZM90.9415 27.6597C90.9415 26.0097 90.2915 25.0397 89.2715 25.0397C88.2515 25.0397 87.6615 26.0497 87.6615 27.6797C87.6615 29.3097 88.2915 30.2797 89.3115 30.2797C90.3315 30.2797 90.9415 29.3497 90.9415 27.6797V27.6597ZM95.1015 20.8697C95.0936 20.5668 95.1759 20.2684 95.3378 20.0124C95.4998 19.7563 95.7341 19.554 96.0111 19.4313C96.2881 19.3085 96.5953 19.2707 96.8938 19.3228C97.1923 19.3749 97.4686 19.5144 97.6877 19.7236C97.9069 19.9329 98.0589 20.2025 98.1246 20.4983C98.1903 20.7941 98.1667 21.1027 98.0567 21.3851C97.9468 21.6674 97.7555 21.9108 97.5071 22.0843C97.2588 22.2578 96.9644 22.3537 96.6615 22.3597C96.4607 22.3735 96.2592 22.3456 96.0697 22.2778C95.8801 22.21 95.7067 22.1038 95.5602 21.9657C95.4137 21.8277 95.2973 21.6608 95.2184 21.4756C95.1394 21.2905 95.0996 21.091 95.1015 20.8897V20.8697ZM95.1015 23.0697H98.1015V32.2497H95.1015V23.0697ZM108.991 27.6597C108.991 30.6597 107.661 32.3697 105.381 32.3697C104.797 32.4072 104.215 32.2643 103.714 31.9603C103.213 31.6562 102.818 31.2057 102.581 30.6697H102.521V35.1897H99.5215V23.0497H102.521V24.6897H102.581C102.807 24.1448 103.195 23.6826 103.692 23.3659C104.189 23.0492 104.772 22.8934 105.361 22.9197C107.661 22.9597 109.031 24.6797 109.031 27.6797L108.991 27.6597ZM105.991 27.6597C105.991 26.1997 105.321 25.2697 104.271 25.2697C103.221 25.2697 102.551 26.2097 102.541 27.6597C102.531 29.1097 103.221 30.0397 104.271 30.0397C105.321 30.0397 105.991 29.1297 105.991 27.6797V27.6597ZM114.141 22.8597C116.632 22.8597 118.141 24.0397 118.211 25.9297H115.481C115.481 25.2797 114.941 24.8697 114.111 24.8697C113.281 24.8697 112.911 25.1897 112.911 25.6597C112.911 26.1297 113.241 26.2797 113.911 26.4197L115.831 26.8097C117.661 27.1997 118.441 27.9397 118.441 29.3297C118.441 31.2297 116.711 32.4497 114.161 32.4497C111.611 32.4497 109.941 31.2297 109.811 29.3597H112.701C112.791 30.0397 113.331 30.4397 114.211 30.4397C115.091 30.4397 115.491 30.1497 115.491 29.6697C115.491 29.1897 115.211 29.0897 114.491 28.9397L112.761 28.5697C110.971 28.1997 110.031 27.2497 110.031 25.8497C110.051 24.0497 111.661 22.8797 114.141 22.8797V22.8597ZM128.451 32.2297H125.561V30.5197H125.501C125.342 31.0938 124.993 31.5963 124.508 31.9438C124.024 32.2912 123.436 32.4627 122.841 32.4297C122.386 32.4556 121.93 32.3834 121.504 32.2179C121.079 32.0524 120.694 31.7976 120.375 31.4705C120.057 31.1435 119.812 30.7518 119.658 30.3221C119.504 29.8924 119.444 29.4346 119.481 28.9797V23.0497H122.481V28.2897C122.481 29.3797 123.041 29.9597 123.971 29.9597C124.189 29.9601 124.405 29.914 124.604 29.8243C124.802 29.7346 124.98 29.6034 125.124 29.4396C125.267 29.2757 125.375 29.083 125.438 28.8744C125.501 28.6657 125.521 28.4459 125.492 28.2297V23.0497H128.492L128.451 32.2297ZM129.901 23.0497H132.801V24.8197H132.861C133.02 24.2532 133.363 23.7554 133.835 23.4044C134.307 23.0534 134.883 22.8688 135.471 22.8797C136.07 22.8318 136.664 23.0109 137.137 23.3815C137.609 23.7521 137.925 24.2869 138.021 24.8797H138.081C138.262 24.2806 138.638 23.759 139.149 23.3969C139.659 23.0348 140.276 22.8528 140.901 22.8797C141.309 22.866 141.715 22.9383 142.093 23.0919C142.472 23.2454 142.813 23.4769 143.096 23.7711C143.379 24.0654 143.597 24.4159 143.736 24.7998C143.874 25.1837 143.931 25.5926 143.901 25.9997V32.2497H140.901V26.7997C140.901 25.7997 140.451 25.3397 139.611 25.3397C139.424 25.3381 139.238 25.3767 139.067 25.4529C138.896 25.5291 138.743 25.6411 138.619 25.7814C138.495 25.9217 138.402 26.0869 138.347 26.266C138.292 26.4452 138.277 26.634 138.301 26.8197V32.2497H135.451V26.7597C135.451 25.8397 135.001 25.3397 134.181 25.3397C133.992 25.3398 133.804 25.38 133.632 25.4577C133.459 25.5355 133.304 25.649 133.179 25.7907C133.053 25.9324 132.959 26.0992 132.902 26.2801C132.846 26.4609 132.828 26.6516 132.852 26.8397V32.2497H129.852L129.901 23.0497Z" fill="#707070"/>
</svg>
