<svg width="20" height="20" viewBox="0 0 20 20" fill="none" xmlns="http://www.w3.org/2000/svg">
<g clip-path="url(#clip0_142_831)">
<path d="M9.99998 5.00016C10.9166 5.00016 11.6666 5.75016 11.6666 6.66683C11.6666 7.5835 10.9166 8.3335 9.99998 8.3335C9.08331 8.3335 8.33331 7.5835 8.33331 6.66683C8.33331 5.75016 9.08331 5.00016 9.99998 5.00016ZM9.99998 13.3335C12.25 13.3335 14.8333 14.4085 15 15.0002H4.99998C5.19165 14.4002 7.75831 13.3335 9.99998 13.3335ZM9.99998 3.3335C8.15831 3.3335 6.66665 4.82516 6.66665 6.66683C6.66665 8.5085 8.15831 10.0002 9.99998 10.0002C11.8416 10.0002 13.3333 8.5085 13.3333 6.66683C13.3333 4.82516 11.8416 3.3335 9.99998 3.3335ZM9.99998 11.6668C7.77498 11.6668 3.33331 12.7835 3.33331 15.0002V16.6668H16.6666V15.0002C16.6666 12.7835 12.225 11.6668 9.99998 11.6668Z" fill="#667085"/>
</g>
<defs>
<clipPath id="clip0_142_831">
<rect width="20" height="20" fill="white"/>
</clipPath>
</defs>
</svg>
